/* XPM */
static char *_6251_21b94d4638865ecda7d9d121215bf03a930d661c9dae32efe7a83cd15412c464[] = {
/* columns rows colors chars-per-pixel */
"32 32 5 1 ",
"  c #045624",
". c #0F6F33",
"X c #307E5E",
"o c #3F9271",
"O c #57AB89",
/* pixels */
"OOOOOOOOOOOOOOOOOOOOOOOOOOOOOOOO",
"OOOOOOOOOOOOOOOOOOOOOOOOOOOOOOOO",
"OOOOOOOOOOOO       OOOOOOOOOOOOO",
"OOOOOOOOO             OOOOOOOOOO",
"OOOOOOOO   .           OOOOOOOOO",
"OOOOOO      .            OOOOOOO",
"OOOOO        ......       OOOOOO",
"OOOO       .  .......      OOOOO",
"OOOO      ... .......      OOOOO",
"OOO      ..... ....  ..     OOOO",
"OO       .........  ...      OOO",
"OO      ................     OOO",
"OO      ................     OOO",
"O    .................        OO",
"O          .... ...... .....  OO",
"O       ...... .........      OO",
"O       ....  ..........      OO",
"O       ...  X.........       OO",
"O     ...   XX..... ..        OO",
"O    ..    XX......  ..       OO",
"OO       XXXX.. ....   .      OO",
"OO      XXXX .. ....    .    OOO",
"OO     ooXXX  .    .     .   OOO",
"OOO  oooooXX  .    .         OOO",
"OOOOOOooooo   .     .       OOOO",
"OOOOOOooooo   .     .      OOOOO",
"OOOOOOOooo    .     .      OOOOO",
"OOOOOOOOoo          .     OOOOOO",
"OOOOOOOOOO               OOOOOOO",
"OOOOOOOOOO             OOOOOOOOO",
"OOOOOOOOOOOO         OOOOOOOOOOO",
"OOOOOOOOOOOOOOOOOOOOOOOOOOOOOOOO"
};
