/* XPM */
static char *_178_fd6bb8b48125d9170edc80e50a168183c68454bbd6ed19f9f36a70855c2df34b[] = {
/* columns rows colors chars-per-pixel */
"32 32 9 1 ",
"  c #307E5E",
". c #3F9271",
"X c #C35091",
"o c #EE62B1",
"O c #57AB89",
"+ c #E391BF",
"@ c #F09DCC",
"# c #FFA5D8",
"$ c #FFCEEA",
/* pixels */
"OOOOOOOOOOOOOOOOOOOOOOOOOOOOOOOO",
"OOOOOOOOOOOOOOOOOOOOOOOOOOOOOOOO",
"OOOOO@@@@OOO.....OOOOOOOOO@OOOOO",
"OOOO@@@@@@..........OOO@@@@@OOOO",
"OOOOO@@##@@..........@@@@@@@OOOO",
"OOOOO@@###@@.......@@@@@@##@OOOO",
"OOOOO@@@$##@@     @@@@####@@OOOO",
"OOOOO@@@###@@@    @@@@$$##@@OOOO",
"OOOO..@@@@@@++@  @++@$###@@@OOOO",
"OOO...@@@+@@@++  +++@@#@@@@OOOOO",
"OOO...@@++@@oo++@++oXo@@++@.OOOO",
"OOO... @++@oooo+#+oooo@++@..OOOO",
"OO....  @++oXoo$@#ooXo+@  ...OOO",
"OO....   ++ooXXo@$ooXo+   ...OOO",
"OO...  @@+++oooo@@ooo++++@....OO",
"OO..@@@@@@@##@o#o$@o@+++++@@..OO",
"OO.@@@@@@@@@ooXooo#@oo+@@@@@@.OO",
"OO@@@##@@@oo+++oXo@+++@@@@@@@@OO",
"OO@@$##@@@o++++oXo+ +++@@##@@@OO",
"OO@@####@@@@ ++oXo++ ++@@#$#@@@O",
"O@@####@@@@  +@oo@@+  @@@#####@@",
"O@@##@@@@@  @@@@@@@@  @@@@@###@@",
"OO@@@@@@    @@@@#@@@   @@@@@@@@@",
"OOO.....    @@@#@#@@ .......@@@O",
"OOO......   @@@$@#@@.........OOO",
"OOOO........@@@$##@@.........OOO",
"OOOOO.......@@@#@#@@........OOOO",
"OOOOOO.......@@###@.........OOOO",
"OOOOOOOO.....@@@#@@.......OOOOOO",
"OOOOOOOOOOO..@@@@@.....OOOOOOOOO",
"OOOOOOOOOOOOOO@@OOOOOOOOOOOOOOOO",
"OOOOOOOOOOOOOOOOOOOOOOOOOOOOOOOO"
};
