/* XPM */
static char *_816_f991e049ed74e089a88679486efc75aab320bc27fe1c757d36090ee422faade9[] = {
/* columns rows colors chars-per-pixel */
"32 32 9 1 ",
"  c #176026",
". c #19702B",
"X c #237634",
"o c #2B813D",
"O c #25893A",
"+ c #719830",
"@ c #81AB3B",
"# c #9AC158",
"$ c #57AB89",
/* pixels */
"$$$$$$$$$$$$$$$$$$$$$$$$$$$$$$$$",
"$$$$$$$$$$$$$$oO $$$$$$$$$$$$$$$",
"$$$$$    $$$X Oo. $$$   . $$$$$$",
"$$$$$  XXXXXoOoOoOXXXX . . $$$$$",
"$$$$.  XXXXXXXXXXXXXXXXX. . $$$$",
"$$$.   XXXXXXXXXXXXXXXXXX  . $$$",
"$$  . XXXXXXXXX XXXXXXXXXX  . X$",
"$$ .  XX XXXXXX.XXXXXXXXXX   .X$",
"$$.  XXX. XXXXX .XXX.XXXXXX . .$",
"$X . XXX .XXXXX. XXX .XXXXX  . $",
"$X.  XXX. XXXXX .XXX. XXXXX $X $",
"$XX.$XXX OXXXXX. XXX .XXXXXX$XXX",
"XX$X$XX .oXXXX. .XXX. XXXXXX$X$X",
"X$$X$XX. OXXX. OXXXO .XXXXXXX$$$",
"$$$X$XXX.oXXXXOoXXXo. XXXXXXX$$$",
"$$$$X.XXXOXXXXoOXXXO .XXXX XX$$$",
"$$$$  XXXXXXXXXoXXXo.XXXXX.XXX$$",
"$$$X .XXXXXXXXXXXXXX XXXX. $XX$$",
"$$XX. .XXXXXXXXXXXXXXXXXX .$XX$$",
"$$oOX. XXXXXXXXXXXXXXXX. . $oOX$",
"$$Oo$X.X##XXXXXXXXXXO##X. $$OoX$",
"$XoO$$ #++oXXXXXXXXXo++# .$ oO .",
"$ O $$.#++OXXXXXXXXXO++#.$$ O . ",
" .$. $ .@@oXXXXXXXXXo@@. $ Xo.  ",
"  $  $$ .oOXXXXXXXXXO . $ XXO $ ",
"$.$$$$$. . XXXXXXXXXX. .$X $  $ ",
"$  $$$$$. .XXXXXXXXX. .$$$$$X$$ ",
"$XX$$$$$$$ XXXXXXXX. $$$$$$$X $$",
"$$$$$$$$$$$XOoXXOoO$$$$$$$$$X $$",
"$$$$$$$$$$$$$OoOoO$$$$$$$$$$$$$$",
"$$$$$$$$$$$$$$$$$$$$$$$$$$$$$$$$",
"$$$$$$$$$$$$$$$$$$$$$$$$$$$$$$$$"
};
