/* XPM */
static char *_499_1ccebd63d7c5b33338c7b2febc8e3bdc65eb2705b9c83f7e583cae1c3bd6cf70[] = {
/* columns rows colors chars-per-pixel */
"32 32 12 1 ",
"  c #051E13",
". c #073312",
"X c #073C15",
"o c #01331D",
"O c #013C22",
"+ c #235A1F",
"@ c #0A452B",
"# c #3C8022",
"$ c #2B813D",
"% c #719830",
"& c #81AB3B",
"* c #9AC158",
/* pixels */
"@@@OO X*XX Oo@O@@ooOX#X   X$XO @",
"@@Oo OXXX  oOo@@oo   XXX+XXXX  @",
"ooo   X+XXO oooooOO $X+XXX*XX Oo",
"O    X#X+$X  O  O  +XXX#X+XXXX o",
"  O +XX+XXX#XX+#+X+X+$XX O  XX  ",
"X.XXX.XX&++XX+XX+XX*+XX oooo X#X",
"XX*X$X.&*&+X#X   X+X++O Oo@OO XX",
"X+XXX.X.&XXX  ooo  XXX oo@Ooo .$",
"$.X#XX$XXXX+ oo@oo +*XOo@O@@o X.",
"XX.X+XXX+XXX oOoOoO++X oo@@o  ..",
"&X+X   O X#X o oo  .X.$ OoOo $X.",
"XXXO O  O XXXX   .X.....  O .X.X",
"X.  oooooO X$XXX.X.X.%.X$.X.X.&.",
"# Ooo@@O@o  XXX.X*X..X..XX$.#XXX",
"X  o@@O@@ooO.X*X.+.XX.O     XXXX",
"X  oO@@O@o OXXXX+.X#X  ooo   X$X",
"XOOo@@O@ooO $XXXXX.X ooo@ooo  XX",
"+X ooooooO ...X $X+ oo@O@@@oo OX",
".X$O O    XX.X   X. o@@@@@O@oO #",
"XXXX   O .X*..   X. o@O@O@@@oo X",
"X*XXX.X#.X..X$X X.XOo@@@@@O@@o X",
"XXX$.&XXX.XX.X.XX.# oo@O@@@@o OX",
"+  XX.X.  O  .X$.X.  oo@@@@ooO +",
" o  XXX Ooooo ..X.X.  oooooo  XX",
"  @ X$ o@@O@ooOX.*X+X O      XX+",
"X  XXXOooO@@@o .+X.XXX    O X+*+",
"XX+X*X  o@@O@o XX.X.X$XX+XX+XXX+",
"*XX+X$X ooooo X#XXX*XX++XX$X&XXX",
"XX$XXXXXO  O XXXX$XXX+XO  XXXXXX",
"O O  X+X$X+X#XX&XX+XX   O O X#  ",
"oO O OX+XXXXX$XX+XXX$O oOo  XO o",
"@oOo  #X+$X    O   XX oO@Oo X oO"
};
