/* XPM */
static char *_4c868cc053144539d52820847507192f2XXfAJs2N2tuPvD[] = {
/* columns rows colors chars-per-pixel */
"64 64 155 2 ",
"   c #88948A",
".  c #9F9A94",
"X  c #A09C96",
"o  c #A99D95",
"O  c #A29F99",
"+  c #8EA096",
"@  c #9FA99E",
"#  c #A9A197",
"$  c #A4A59B",
"%  c #ABA59C",
"&  c #BBA49A",
"*  c #BCAB9F",
"=  c #97A8A5",
"-  c #AEABA3",
";  c #B0AEA6",
":  c #B9ACA0",
">  c #BFAEAA",
",  c #A7B5AA",
"<  c #AFB5AB",
"1  c #B3B4AC",
"2  c #BDB7AF",
"3  c #B6B9AF",
"4  c #BEB8AF",
"5  c #A1B7B2",
"6  c #A5BCB5",
"7  c #AFBDB5",
"8  c #B5B6B0",
"9  c #BCB4B2",
"0  c #B6BAB1",
"q  c #B9BAB4",
"w  c #BBBEB9",
"e  c #C1A69C",
"r  c #C6AA9F",
"t  c #C4ABA2",
"y  c #C9AEA5",
"u  c #C6ABA8",
"i  c #CBAEA9",
"p  c #CCB0A6",
"a  c #C5B5AF",
"s  c #CEB3AC",
"d  c #D1B3AF",
"f  c #C4B6B2",
"g  c #C9B5B2",
"h  c #C3B9B5",
"j  c #CDBCB5",
"k  c #C4BBBB",
"l  c #CCBABB",
"z  c #D5B4B3",
"x  c #DAB6B6",
"c  c #D5BAB4",
"v  c #D9BAB7",
"b  c #DAB6B8",
"n  c #D6BBB8",
"m  c #DCBDBB",
"M  c #E1BDBD",
"N  c #B5C4BA",
"B  c #BEC1BB",
"V  c #C1C3BD",
"C  c #CEC3BD",
"Z  c #CCC8BE",
"A  c #D3C2BC",
"S  c #DDC1BD",
"D  c #E0C2BF",
"F  c #DEBFC1",
"G  c #E5BEC1",
"H  c #B4C7C3",
"J  c #BEC3C0",
"K  c #B5C9C5",
"L  c #B9CAC6",
"P  c #B6CCC9",
"I  c #BBCECB",
"U  c #BED1CE",
"Y  c #BFD3D1",
"T  c #B7D8E3",
"R  c #C0C6C3",
"E  c #C2C8C6",
"W  c #C1CECC",
"Q  c #D5C5C2",
"!  c #DBC4C2",
"~  c #D3CAC5",
"^  c #D8C8C2",
"/  c #DCCBCA",
"(  c #C1D1CF",
")  c #CED1CE",
"_  c #D0D4CE",
"`  c #C4D5D3",
"'  c #C9D6D4",
"]  c #C6D8D6",
"[  c #CAD9D6",
"{  c #C6D7D9",
"}  c #C6DADC",
"|  c #CCDCDA",
" . c #D2D4D3",
".. c #DAD6D3",
"X. c #D4DAD5",
"o. c #DCD8D7",
"O. c #D2DEDD",
"+. c #DBDCDB",
"@. c #E3C4C3",
"#. c #E8C7C7",
"$. c #E6C8C5",
"%. c #E6C6CA",
"&. c #E8C7CB",
"*. c #E6CACB",
"=. c #E9CDCD",
"-. c #E4D4CF",
";. c #E9D0CF",
":. c #EACDD0",
">. c #EBCDD0",
",. c #E8CFD0",
"<. c #E0D6D5",
"1. c #E8D0D0",
"2. c #EBD3D2",
"3. c #EBD6D5",
"4. c #E1D8D7",
"5. c #EAD9D7",
"6. c #E4D7D9",
"7. c #E8D5D8",
"8. c #E5DADB",
"9. c #E3DBDD",
"0. c #E6DCDD",
"q. c #ECDADA",
"w. c #E9DFDE",
"e. c #F0DEDD",
"r. c #CFE1DF",
"t. c #D2E0DF",
"y. c #DAE0DE",
"u. c #E1E3DF",
"i. c #CDDEE0",
"p. c #D0DFE0",
"a. c #E3DFE1",
"s. c #D4E2E2",
"d. c #D9E5E4",
"f. c #DCE8E7",
"g. c #DAE7E8",
"h. c #DDEAEA",
"j. c #E3E1E2",
"k. c #E4E4E4",
"l. c #E9E1E0",
"z. c #E3E6E8",
"x. c #E1ECEC",
"c. c #E7EEED",
"v. c #E9EDEE",
"b. c #E9EFEF",
"n. c #F3E2E1",
"m. c #E9F0EF",
"M. c #E7F1F0",
"N. c #E7F3F3",
"B. c #EAF1F1",
"V. c #E8F2F3",
"C. c #E8F3F4",
"Z. c #EFF6F6",
"A. c #F0F7F7",
"S. c #F0F7F8",
"D. c #F0F8F8",
/* pixels */
"=.=.=.=.=.=.=.=.=.=.=.=.=.=.;.;.;.;.;.=.=.=.=.,.,.=.=.,.;.;.=.=.=.=.=.=.=.=.=.,.,.,.,.,.,.,.,.,.=.,.=.,.,.=.=.=.=.=.=.=.=.=.=.n.",
"=.=.=.=.=.=.=.=.=.=.=.=.=.=.1.1.;.=.=.=.=.1.1.1.=.=.=.=.;.1.;.1.,.=.,.=.,.,.=.,.,.,.,.,.,.,.=.,.,.,.=.=.,.,.=.=.=.=.=.=.=.=.=.n.",
"=.=.=.=.=.=.=.=.=.=.=.=.=.=.=.=.=.=.=.=.=.1.1.1.1.=.=.,.,.,.,.,.=.,.=.,.,.=.,.=.=.,.,.,.,.,.=.,.,.,.,.,.l.v.v.v.v.v.c.v.c.c.c.A.",
"=.=.=.=.=.=.=.=.=.=.=.=.=.=.=.=.=.=.=.=.=.=.;.;.=.=.;.=.=.,.,.,.=.=.=.,.,.=.,.,.=.=.,.,.=.,.,.,.,.,.,.,.w.v.v.V.V.M.M.M.M.M.M.A.",
"=.=.=.=.=.=.=.=.=.=.=.=.=.=.=.=.=.=.=.=.=.=.=.=.=.=.;.;.=.=.=.=.=.,.=.=.,.,.=.=.=.,.,.,.=.,.,.,.,.,.,.=.w.v.v.V.M.M.M.M.M.M.M.D.",
"=.=.=.=.=.=.=.=.=.=.=.=.=.=.=.;.=.=.=.=.=.=.;.;.=.;.=.;.=.=.=.=.,.,.,.=.,.,.,.=.,.,.,.,.=.,.,.,.,.,.,.=.w.v.V.V.V.M.M.V.M.M.M.D.",
"=.=.=.=.=.=.=.=.=.=.=.=.=.=.=.;.=.;.=.=.=.=.;.;.=.=.;.;.=.=.=.=.=.=.=.=.,.,.=.,.=.=.=.,.,.,.=.,.,.,.,.=.w.v.v.V.C.C.C.C.C.M.M.D.",
"=.=.=.=.=.=.=.=.=.=.=.=.=.=.=.=.=.;.=.=.=.=.1.;.;.=.1.;.;.=.=.=.=.=.=.=.,.,.=.=.,.=.,.,.,.,.,.,.,.,.=.=.w.v.v.V.C.V.M.C.V.M.M.D.",
"=.=.=.=.=.=.=.=.=.=.=.=.=.=.=.;.;.=.=.=.=.;.;.;.=.=.=.=.;.=.=.=.=.=.=.=.=.=.=.=.,.,.=.=.=.=.,.,.,.,.,.=.w.v.m.V.V.V.V.V.M.M.M.D.",
"=.=.=.=.=.=.=.=.=.=.=.=.=.=.;.;.;.=.=.=.=.;.;.;.=.=.;.;.=.=.=.=.;.;.=.=.=.=.=.=.,.,.,.=.=.=.,.,.,.,.,.=.w.v.m.V.V.M.V.V.M.M.M.D.",
"=.=.=.=.=.=.=.=.=.=.=.=.=.=.=.=.;.;.=.=.=.=.;.;.=.;.;.=.;.=.=.=.;.;.=.=.=.=.=.=.,.,.=.=.=.=.=.,.,.,.,.=.w.v.V.V.V.V.V.V.M.M.M.D.",
"=.=.=.=.=.=.=.=.=.=.=.=.=.=.=.=.;.;.=.=.=.=.;.=.=.=.;.;.;.=.=.=.;.=.=.=.=.=.=.=.=.=.=.=.=.=.=.,.,.,.,.=.w.v.V.V.V.V.V.V.V.C.M.S.",
"=.=.=.=.=.=.=.=.=.=.=.=.=.=.=.=.;.;.=.=.=.=.=.=.;.;.=.=.=.;.=.;.=.=.=.=.=.=.=.,.,.=.=.=.=.,.,.,.,.,.,.=.w.v.V.V.V.V.V.V.M.V.V.D.",
"=.=.=.=.=.=.=.=.=.=.=.=.=.=.=.=.;.;.=.=.=.=.=.=.=.;.=.=.=.;.;.;.=.=.=.=.=.=.=.,.=.=.=.=.=.,.,.,.,.,.,.=.9.v.V.V.V.V.V.V.V.V.M.S.",
"=.=.=.=.=.=.=.=.=.=.=.=.=.=.=.=.=.=.=.=.=.=.=.=.;.;.=.=.=.=.=.=.=.=.=.=.=.=.,.,.=.=.=.=.=.=.=.,.Q Q *.*.8.v.V.V.V.V.V.V.V.M.M.D.",
"=.=.=.=.=.=.=.=.=.=.=.=.=.=.=.=.=.=.=.=.=.=.=.;.;.=.=.=.=.=.=.=.=.=.=.=.=.=.,.=.,.=.=.=.=.,.,.&.1 q F &.8.v.V.V.V.V.V.V.M.V.M.S.",
"=.=.=.=.=.=.=.=.=.=.=.=.=.=.=.=.=.=.=.=.=.=.=.=.=.=.;.;.=.;.=.=.=.=.=.=.=.=.=.=.,.=.=.=.,.,.,.#.. q m #.8.m.V.V.V.V.V.V.C.C.M.S.",
"=.=.=.=.=.=.=.=.=.=.=.=.=.=.=.=.=.=.=.=.=.=.=.=.=.=.=.=.=.=.=.=.=.=.=.=.=.=.=.=.=.=.=.=.,.,.,.#.X 0 n #.8.m.m.V.V.V.V.V.C.C.M.S.",
"=.=.=.=.=.=.=.=.=.=.=.=.=.=.=.=.=.=.=.=.=.=.=.=.=.=.=.=.=.=.=.=.=.=.=.=.=.=.=.=.,.,.=.,.,.,.,.#.X 1 z $.4.m.m.V.V.V.V.V.M.M.M.S.",
"=.=.=.=.=.=.=.=.=.=.=.=.=.=.=.=.=.=.=.=.=.=.=.=.=.=.=.=.=.=.=.=.=.=.=.=.=.=.=.=.,.=.,.,.=.=.=.#.. 1 z @.8.V.m.V.V.M.V.V.M.M.M.S.",
"=.=.=.=.=.=.=.=.=.=.=.=.=.=.=.=.=.=.=.=.=.=.=.=.=.=.=.=.=.=.=.=.=.=.=.=.=.=.=.=.=.=.=.=.=.=.=.#.O 1 z @.9.V.V.V.V.V.V.M.M.M.M.S.",
"=.=.=.=.=.=.=.=.=.=.=.=.=.=.=.=.=.=.=.=.=.=.=.=.=.=.=.=.=.=.=.=.=.=.=.=.=.=.=.=.=.=.=.=.=.=.=.#.. 1 z @.9.V.V.M.V.V.V.M.M.M.M.S.",
"=.=.=.=.=.=.=.=.=.=.=.=.=.=.=.=.=.=.=.=.=.=.=.=.=.=.=.=.=.=.=.=.=.=.=.=.=.=.=.=.=.=.=.=.=.=.,.#.> 0 z @.0.V.V.V.V.V.M.M.M.M.M.S.",
"=.=.=.=.=.=.=.=.=.=.=.=.=.=.=.=.=.=.=.=.=.=.=.=.=.=.=.=.=.=.=.=.=.=.=.=.=.=.=.=.=.=.=.=.=.=.=.&.g q x @.9.V.V.M.M.V.M.M.M.M.M.S.",
"=.=.=.=.=.=.=.=.=.=.=.=.=.=.=.=.=.=.=.=.=.=.=.=.=.=.=.=.=.=.=.=.=.=.=.=.=.=.=.=.=.=.=.=.=.=.=.&.g q v @.0.V.M.M.M.C.M.M.M.M.M.S.",
"=.=.=.=.=.=.=.=.=.=.=.=.=.=.=.=.=.=.=.=.=.=.=.=.=.=.=.=.=.=.=.=.=.=.=.=.=.=.=.=.=.=.=.=.=.=.=.&.f 0 v @.0.V.M.M.C.C.M.M.M.M.M.S.",
"=.=.=.=.=.=.=.=.=.=.=.=.=.=.=.=.=.=.=.=.=.=.=.=.=.=.=.=.=.=.=.=.=.=.=.=.=.=.=.=.=.=.=.=.=.=.=.&.f 0 x @.a.M.M.M.C.M.M.M.M.M.M.S.",
"=.=.=.=.=.=.=.=.=.=.=.=.=.=.=.=.=.=.=.=.=.=.=.=.=.=.=.=.=.=.=.=.=.=.=.=.=.=.=.=.=.=.=.=.=.=.=.&.f q x @.a.M.M.V.C.C.M.M.M.M.M.S.",
"=.=.=.=.=.=.=.=.=.=.=.=.=.=.=.=.=.=.=.=.=.=.=.=.=.=.=.=.=.=.=.=.=.=.=.=.=.=.=.=.=.=.=.=.=.=.=.&.f 0 x G a.M.M.V.M.M.M.M.M.M.M.S.",
"=.=.=.=.=.=.=.=.=.=.=.=.=.=.=.=.=.=.=.=.=.=.=.=.=.=.=.=.=.=.=.=.=.=.=.=.=.=.=.=.=.=.=.=.=.=.=.&.f q b @.a.M.M.V.M.M.M.M.M.M.M.S.",
"=.=.=.=.=.=.=.=.=.=.=.=.=.=.=.=.=.=.=.=.=.=.=.=.=.=.=.=.=.=.=.=.=.=.=.=.=.=.=.=.=.=.=.=.=.=.=.&.f q x @.j.M.M.M.M.M.M.M.M.M.M.S.",
"=.=.=.=.=.=.=.=.=.=.=.=.=.=.=.=.=.=.=.=.=.=.=.=.=.=.=.=.=.=.=.=.=.=.=.=.=.=.=.=.=.=.=.=.=.=.=.#.f q x G j.M.M.M.M.M.M.M.M.M.M.A.",
"q.1.=.=.=.=.=.=.=.=.=.*.=.=.=.=.=.=.=.=.=.=.=.=.=.=.=.=.=.=.=.=.=.=.=.=.=.=.=.=.=.=.=.=.=.=.&.%.f 0 x G k.M.M.M.M.M.M.M.M.M.M.A.",
"C / 5.1.=.=.=.=.=.=.=.=.=.=.=.=.=.=.=.=.=.=.=.=.=.=.=.=.=.=.=.=.=.=.=.=.=.=.=.=.=.=.=.=.=.=.&.#.f 3 x G k.M.M.M.M.M.M.M.M.M.M.Z.",
"s s j k.q.=.=.=.=.=.=.=.=.=.=.=.=.=.=.=.=.=.=.=.=.=.=.=.=.=.=.=.=.=.=.=.=.=.=.=.=.=.=.=.=.=.=.#.h 0 x G k.M.M.M.M.M.M.M.M.M.M.A.",
"v c d A j.w.=.=.*.=.=.=.=.=.=.=.=.=.=.=.=.=.=.=.=.=.=.=.=.=.=.=.=.=.=.=.=.=.=.=.=.=.=.=.=.=.=.#.9 8 b G k.M.M.M.M.M.M.M.M.M.M.A.",
"@.S m c A k.7.&.*.*.*.=.*.=.=.=.=.=.=.=.=.=.=.=.=.=.=.=.=.=.=.=.=.=.=.=.=.=.=.=.=.=.=.=.=.=.,.&.l h m @.o.y.+.+.+.X.X.X. ._ ) u.",
"$.@.@.S c A k.*.*.*.*.*.*.*.=.=.=.=.=.=.=.=.=.=.=.=.=.=.=.=.=.=.=.=.=.=.=.=.=.=.=.=.=.=.=.=.=.=.@.m #.#.! A r y p s p y t t e ^ ",
"$.$.$.@.S c ..0.#.*.*.*.*.*.=.=.=.=.=.=.=.=.=.=.=.=.=.=.=.=.=.=.=.=.=.=.=.=.=.=.=.=.=.=.=.=.=.=.*.$.=.$.$.! c m m m m v c c c -.",
"$.$.$.$.@.S A k.*.#.$.*.*.*.*.=.=.=.=.=.=.=.=.=.=.=.=.=.=.=.=.=.=.=.=.=.=.=.=.=.=.=.=.=.=.=.=.=.*.*.*.$.@.! S S S S S S m m m 5.",
"$.$.$.$.$.@.m 4.6.@.#.*.*.*.<.o.4.4.4.4.4.4.4.4.4.4.4.<.4.4.4.4.4.4.4.4.4.4.o.o.o.o.o.o.+.+.+.+.+.o....... .O. . . . .) ) C x 5.",
"$.$.$.$.$.$.S / k.G #.#.#.*.y.s.s.y.y.y.y.+.+.+.+.+.+.+.+.+.+.y.+.+.y.O.O.O.O.O.O.O.O.[ O.[ [ | ] ` ] [ ` 6 ] Y Y ` U U U E x q.",
"$.$.$.$.#.#.@.m z.F @.#.#.*.[ [ d.' [ d.O.O.` s.( W s.O.' O.s.[ [ s.` ' d.[ ( s.s.` ` g.I [ g.` [ | O.` [ g.I [ g.` s.Y [ R x q.",
"#.$.$.#.$.#.@.m z./ G #.#./ [ ' ( ` [ ' ` ' ' ( ' ' ` [ ( ' ` ` ' ` ` ` ` ` ` ` ` ` ` ( Y ` ` ` ` ( I Y ( I I U I I I I P J x q.",
"$.#.#.#.#.#.@.m C f M @.@.! ' s.f.' s.f.O.[ s.s.[ t.d.( O.g.( O.d.' t.g.[ | g.g.` d.g.U d.g.( | d.` | g.[ ` s.g.U s.s.s.[ B c q.",
"$.$.#.#.@.@.@.m x.k b D M ! ' g.x.' g.x.O.| g.g.[ s.f.W s.h.U s.h.' s.h.| | g.g.` s.g.I s.g.U s.s.` s.g.[ ] g.h.Y U I I ` w z q.",
"$.$.#.@.@.@.m / h.E x M M Q [ [ O.' | | [ ` ' [ ' [ | ` | | ` [ | ` | | [ [ | | ` [ | U | [ U [ [ U ` [ ( I ` ` P ` U I I w z 3.",
"$.#.#.@.<.+.Q  .` k z m m Q ` | O.O.[ [ [ O.I [ | ` [ O.` ` [ O.` [ | I [ O.I [ | ` [ O.` ` [ | I [ s.K [ d.K p.g.I s.g.] q d 3.",
"$.#.@./ d.g.` g.{ u z m m Q [ | s.x.g.| | h.I [ g.` O.h.| ` d.h.` g.x.I d.h.I s.h.` s.h.| ` s.h.` s.h.K O.h.K s.g.U | g.` q z 3.",
"$.@.@.y.s.` g.M.d.i z m m Q ` [ [ [ ` ] [ L P [ [ I ' ` W ( ' ` U ' ` I ` ` I ` ` U ` ` U I ` ` I ( ( P U U K K L P K I P q z 3.",
"@.@./ t.r.Y x.x...s v S m Q ' O.| t.t.[ ` | s.` | t.U | s.` | s.` [ t.[ ] t.s.U s.s.U t.s.` [ t.` ` | [ ` | t.I O.s.O.| ` 9 z 3.",
"@.m X.| ] s.h.h.j c S @.m Q [ | ` ` g.O.` | x.` [ h.I | h.` [ h.` | | t.[ | h.( s.h.I t.h.` [ h.` | | O.` | h.` h.g.[ ` ] 9 z 3.",
"@.! [ ` U d.g. .i m D @.S Q ' s.s.s.s.[ ` } i.` s.} I s.} ( s.s.` | s.[ ` s.s.U s.t.I s.t.` | O.U [ O.` ` | [ I [ [ [ ` I 9 z 3.",
"S ~ U P ` s.s.a d m @.@.S Q ' [ [ [ [ [ | ` [ [ ` ] | ` ` [ [ U ] ] I ` ] U ` ` I ` ] ( U ` ` I [ ] K ` ` K ` [ ` ` ` ` I 9 z 3.",
"m ( H 5 | ' J t c S S @.D Q [ [ | h.h.h.h.I | h.` | g.O.` | h.` [ h.L ` h.( [ s.` [ ` O.` s.h.` d.h.K d.g.L h.h.g.g.| ] ` 9 z 3.",
"A N 6 = ` ` f y c S S @.D Q [ d.g.h.h.h.h.I h.s.` g.g.| ` h.T ` h.d.K h.h.U g.f.` | t.` ` | t.I [ O.H ` [ H ' ' ' ` ` ` U 9 x 3.",
"C , + H L L t s c m S @.S Q ( U U K U U L ` ` L ( ` ( U U ( ( ] ( ( [ U I ] ` U ] ` Y I [ ` ` ` ` ] ` Y Y Y ` ] ] P U U U 9 x 3.",
"4 @   7 0 2 y z m m S @.@.^ O.h.h.I h.h.[ s.h.` O.h.h.O.` h.h.h.h.h.h.h.h.h.h.h.h.h.h.` h.h.h.( s.g.[ ` U I ` L ( K P P P 9 v q.",
"a % $ < 1 u d c m m S @.@.^ [ ` s.L s.s.` [ ` ` O.O.s.O.` h.h.h.h.h.h.h.h.h.h.h.h.h.h.` s.I | I | L ` s.` [ ] ` s.P | | ` 9 v q.",
"m t : q & s c m m S S @.@.^ ' ( ` I ` ` ` ( ( I ( ( ( ( I ( ( ( W W W I I I I I I I I K I I I I U I I I I L I L L K L K I f m q.",
"S s Z * p v m S S S @.@.@.n V V V V V V V V V B B B B w w w w q q q q 0 8 8 1 1 1 1 1 1 1 ; ; ; - - - - % % % % # o o o o i @.q.",
"S c ~ t c A S S S S @.@.@.m s i i i i i i i i i i i i i i i i i i i i i i i i i i i i i i i i i i i i i i i i i i i d d z m @.q.",
"S c j d S S S S S D @.#.$.@.@.S @.D @.@.@.@.@.@.@.@.@.@.@.@.@.@.@.@.@.@.@.@.@.@.D @.@.@.@.@.@.@.@.! @.@.S m m F F m m m @.@.#.q.",
"S A A c S S S S S D @.$.$.@.@.@.@.@.@.@.@.@.@.@.@.@.@.@.@.@.@.@.@.@.@.@.@.@.@.@.@.@.@.@.@.@.@.@.@.@.@.@.@.@.@.@.@.@.@.@.@.#.#.e."
};
