/* XPM */
static char *_dc3aeb21cf24a6198d15f9e802dac8fxMTzLRjCjanyN6K1[] = {
/* columns rows colors chars-per-pixel */
"64 64 203 2 ",
"   c #22050A",
".  c #24090E",
"X  c #330207",
"o  c #34030A",
"O  c #3A040C",
"+  c #260C11",
"@  c #280E13",
"#  c #370D17",
"$  c #3B0913",
"%  c #291015",
"&  c #37121A",
"*  c #39151D",
"=  c #39191F",
"-  c #3B1D24",
";  c #3F2229",
":  c #42060D",
">  c #470B17",
",  c #4B0915",
"<  c #4E0E1E",
"1  c #530712",
"2  c #5C0713",
"3  c #540914",
"4  c #5C0914",
"5  c #530C1E",
"6  c #5C0D1C",
"7  c #4E101F",
"8  c #600713",
"9  c #640915",
"0  c #6A0B16",
"q  c #640C1A",
"w  c #6A0C19",
"e  c #67101A",
"r  c #6D101C",
"t  c #4F0F20",
"y  c #550E20",
"u  c #5B0E23",
"i  c #4E1120",
"p  c #4E1B27",
"a  c #4E1D28",
"s  c #551323",
"d  c #5C1124",
"f  c #521927",
"g  c #5D1529",
"h  c #511C28",
"j  c #5C1F2D",
"k  c #620F25",
"l  c #621127",
"z  c #6A1421",
"x  c #6D1A24",
"c  c #651229",
"v  c #6B132B",
"b  c #621A2D",
"n  c #6B1D28",
"m  c #741427",
"M  c #721926",
"N  c #73142D",
"B  c #7C142A",
"V  c #741B2A",
"C  c #781C2E",
"Z  c #661B34",
"A  c #691C35",
"S  c #6F1E39",
"D  c #761530",
"F  c #7B1632",
"G  c #721B33",
"H  c #7D1B34",
"J  c #4C272C",
"K  c #5C2127",
"L  c #652936",
"P  c #6C2C3A",
"I  c #722530",
"U  c #792637",
"Y  c #792833",
"T  c #74203D",
"R  c #7C2644",
"E  c #6B3F45",
"W  c #743442",
"Q  c #7C3945",
"!  c #7C3C4A",
"~  c #71424B",
"^  c #82152D",
"/  c #831734",
"(  c #881733",
")  c #831836",
"_  c #891836",
"`  c #861739",
"'  c #891738",
"]  c #861939",
"[  c #8B193B",
"{  c #911B3D",
"}  c #8B2C33",
"|  c #822A3C",
" . c #952C35",
".. c #8A3037",
"X. c #81343E",
"o. c #8E343C",
"O. c #91333C",
"+. c #98343C",
"@. c #931D40",
"#. c #872942",
"$. c #862A4D",
"%. c #882B4F",
"&. c #902D48",
"*. c #883746",
"=. c #833B47",
"-. c #8C3B4A",
";. c #953547",
":. c #943B44",
">. c #9A3B45",
",. c #9E3F49",
"<. c #8A3D51",
"1. c #923C53",
"2. c #A43B46",
"3. c #A33F49",
"4. c #AC3E49",
"5. c #88444F",
"6. c #96434B",
"7. c #9C434D",
"8. c #844652",
"9. c #8F4855",
"0. c #8E4D5A",
"q. c #934555",
"w. c #9C4750",
"e. c #954B56",
"r. c #9D4B54",
"t. c #954E5A",
"y. c #9E4E59",
"u. c #88545C",
"i. c #96515B",
"p. c #9B535E",
"a. c #A3434D",
"s. c #AB434E",
"d. c #A44650",
"f. c #AA4651",
"g. c #A34A54",
"h. c #AB4A55",
"j. c #A34F59",
"k. c #AC4E59",
"l. c #B24653",
"z. c #B24A56",
"x. c #B34E5A",
"c. c #B84F5C",
"v. c #A4535D",
"b. c #AB525D",
"n. c #B3525D",
"m. c #B8525E",
"M. c #9E4E61",
"N. c #965662",
"B. c #9E5562",
"V. c #945A64",
"C. c #9C5A65",
"Z. c #9E5B69",
"A. c #A04C61",
"S. c #A35561",
"D. c #AC5661",
"F. c #A45A64",
"G. c #AB5B65",
"H. c #A65E6A",
"J. c #AC5E69",
"K. c #B45661",
"L. c #BA5562",
"P. c #B45A65",
"I. c #BB5966",
"U. c #B45E69",
"Y. c #BC5D6A",
"T. c #A4616D",
"R. c #AB626D",
"E. c #B4626D",
"W. c #BC616D",
"Q. c #A66771",
"!. c #AC6671",
"~. c #A36973",
"^. c #AD6A75",
"/. c #AE6E78",
"(. c #B36671",
"). c #BC6571",
"_. c #B36A75",
"`. c #BC6A76",
"'. c #B36E79",
"]. c #BC6D79",
"[. c #B5717C",
"{. c #BB737E",
"}. c #C05966",
"|. c #C05D6A",
" X c #C1616E",
".X c #C26572",
"XX c #C36976",
"oX c #C46976",
"OX c #C46D7A",
"+X c #C56E7A",
"@X c #C4717D",
"#X c #C7727E",
"$X c #BB7681",
"%X c #BD7983",
"&X c #C47581",
"*X c #C87682",
"=X c #C47A85",
"-X c #C87884",
";X c #C57E89",
":X c #C87D89",
">X c #C5808B",
",X c #C9818C",
"<X c #CB8691",
/* pixels */
"O.:.a. .3.3.s.h.n.k.h.x.n.4.s.x.z.m.I.Y.Y. X X|.|.}.}.|. X X.XoXoXoX#X#X+X#X*X-X,X<X;X[.e.Y e 0 0 0 0 0 M C z q u d g b A T R %.",
":.} +.>.3.a.3.k.n.n.s.s.n.n.z.l.L.x.L.Y.Y.Y..X.X.X.X X|. X X|.|.oX+X#X#X&X#X*X*X:X,X;X_.p.Y 9 9 0 0 M C r w q q d d g b A T R %.",
"O.>. .>.a.b.h.f.K.P.n.n.z.K.K.n.c.I.c.L.Y.Y.I.oX.X XoX.X X X X X XoX+X+X*X-X*X-X:X;X%XR.-.z 9 9 M V r 0 w w q q d d g b A T R %.",
"O.7. .,.d.h.s.h.k.U.Y.K.k.x.P.Y.Y.m.Y.L.I.Y.W.I..XoX.XoX+XoXoX.X X.X+X-X-X-X:X,X;X;X[.p.X.e M V r 0 0 0 w w q q u d g b A T R %.",
"o.>.7.7.a.k.h.h.s.b.P.K.n.x.x.P.Y.W.L.Y.I.Y.Y.W.|.oXXXoX+X#X+X+XoXoXoX+X-X:X:X:X>X[.^.i.Y V w 9 0 0 0 0 w q q 6 y d g b A T R %.",
"} 7.a.7.a.k.d.b.2.h.n.k.h.K.K.k.K.W.W.I.I.Y.Y.I.W..XoX+XoXoX#X*X+X+X+X#X#X*X;X,X>X[.C.X.9 9 9 9 0 0 0 w w q q 6 y s g b A T R %.",
"O.,.7.g.a.a.a.k.f.3.x.P.f.f.P.K.s.n.).).W.m.Y.W.Y..X.XoX+XoXoX+X*X*X*X*X-X:X-X>X=X'.5.x 9 9 9 9 9 0 w w w w q 6 y s g b A T R %.",
">.7.7.d.g.>.3.h.b.2.h.U.K.2.h.P.K.s.x.`.).).m.L..X.X.XoX+X+X+XXXoX#X*X:X;X;X%X$X$XF.X.q 8 8 9 9 9 0 0 w w w 6 6 y s g b A T R %.",
"w.7.g.7.j.a.d.3.k.f.s.K.E.k.2.n.P.n.l.x.`.).oXL.L..XoX+X#X#X#X+X+X+X*X*X:X;X=XH.i.t.I 4 8 8 9 9 9 9 w w w q 6 6 y s g b A T R $.",
"7.:.g.7.g.v.d.s.h.d.h.K.K.U.f.f.K.I.K.n.x.Y.W..XY.I.+X#X#X*X#X*X*X#X*X-X-X%X%X;Xe.n 4 4 4 9 9 9 9 9 w w w q 6 6 y s g b A T R $.",
">.o.o.v.g.7.7.g.h.d.b.k.U.K.K.f.n.n.Y.Y.I.n.I.W.`.).|.&X-X#X*X#X*X-X;X;X;X&X_.p.9.n 2 4 4 8 9 9 9 9 9 9 w 6 6 5 y s g g A T R $.",
"7.} ..g.g.7.k.g.g.b.k.D.h.K.P.k.z.K.K.).Y.W.n.I.).`.oX.X&X-X#X-X-X-X;X>X%X{.R.t.I 4 2 2 4 8 8 9 9 9 9 w q 6 6 5 y s g b Z T R $.",
"w.O...7.g.g.g.g.b.D.a.b.h.D.U.K.n.P.K.I.`.Y.W.I.W.`.`.+X+X&X&X{.-X;X;X=X$XT.i.=.l 2 2 2 2 4 8 8 8 8 8 6 6 6 5 5 < s s g Z S R $.",
"w.:.} :.d.b.d.b.g.d.D.a.k.3.U.).k.n.U.K.).).Y.W.W.`.].oX#X&X-X$X_.;X%X$X^.Z.=.n 3 1 1 1 1 1 1 3 3 3 3 3 , , , > > < 7 s g b Z S ",
"w.>.o...g.b.g.j.D.a.D.h.h.b.f.E.E.f.K.U.P.#X).Y.Y.`.#X+X+X#X&X;X=XR.{./.C.Q K : O o o o o X X X X X X X X X X o o o o o O O $ $ ",
"w.r.O.:.7.v.D.g.b.D.k.(.a.b.d.P.E.K.h.U.U.).@XW.).).@X*X&X*X&X{.%X%XV.u.E J .                                 . . . . + + @ @ % ",
"r.v.o.:.w.g.G.g.b.J.d.(.U.h.D.h.E.U.n.x.U.W.].].W.+X`.*X-X-X-X&X'.^.~.~ L * # # # & & & & & & & & & & & & * * * = = - - - - ; ; ",
"v.v.6.>.7.7.D.D.d.b.g.D.].d.D.b.P.P.P.K.P.W.`.{.`.`.@X&X;X;X=X$X^.C.8.W f s i i i p p p p p p p a a a p p p p p p p p p p p p p ",
"H.r.6.7.w.:.j.J.7.b.b.g.E.E.k.K.K.E.P.U.U.U.).].&X].#X&X=X>X>X%X/.C.! j i i i i i p p p p p p a p p p p p p p p p p p p p p p p ",
"F.w.r.7.j.>.7.G.g.v.b.a.G.E.b.P.P.P.U.U.).W.E.`.{.&X#X=X$X%X$X[.T.8.L s i i i i i p p p p p p a p p p p p p p p p p p p p p p p ",
"F.7.r.:.v.g.>.v.D.g.b.g.k.D.P.D.U.U.E.U.`.`.).).$X=X&X%X$X$X/.C.C.W s y y i i 7 i p p p p p p p p p p p p p p p p p p p p p p p ",
"S.r.r.o.v.G.7.g.D.g.b.G.g.D.D.U.E.E.E.`.E.].`._.].=X=X$X[.Q.V.8.P f y s 7 7 7 i 7 p p p p p p p a p p p p p p p p p p p p p p p ",
"y.v.7.w.6.G.S.7.J.b.b.U.b.D.D.U.(.E.`.).].`.{.{.!.$X%X[.Q.N.! L s i i 7 7 7 7 < < p p p a a p p p p p p p p p p p p p p p a a a ",
"y.y.6.v.:.v.S.g.R.D.b.U.U.k.E.U.`.`._.].{.].{.%X'.C.$XQ.Z.! L s s i i 7 7 7 < < 7 p p p p p a a p p p p p p p p p a a a a h h h ",
"r.r.r.v.6.v.G.j.J.D.G.D._.b.G._._.`._.{.{.=X'.[.$XT.0.N.! L s y s y 7 7 7 7 7 7 7 p p p p p p p p p a a a a a a a a a a a h h h ",
"r.6.S.r.r.r.v.v.D.G.G.J.E.U.G._._.{.`.].{.{.$XT.Z.Q.! P b s y y y s t < 7 7 7 7 7 p h p p p p p p p p a p p a a a a h h h h h h ",
"y.r.v.r.v.7.v.F.v.J.J.(.G._.J.(.'.{._.{.!.'.[.C.0.! P g s s y y 5 5 5 7 < 7 7 7 7 p h h p p p p p p p p p p a a h h h h h h h h ",
"y.v.7.v.G.w.g.R.D.R.J.E.E._.E._.{.$X'.{.!.B.Z.i.P b s s s s y y y t t < < < < 7 7 p h p p p p h p a a a a a a h h h h h h h h h ",
"r.F.7.v.G.v.j.G.J.R.G.R.R._._.(.[.%X[.R.!.9.Q W g y y y y y y 5 5 5 5 < < < 7 7 < p p p p p p h p p h h h h h h p h h h h h h h ",
"6.S.r.v.J.J.v.J.E.J.R.J.(.R.'.'.'.'.[.q.t.=.A d y y y y y y 5 5 5 5 5 < < 7 7 < 7 p p p p p p h h p p h h h h h h h p h h h h h ",
"r.y.y.v.R.R.J.J._.R.!.R.!.!._.!.^.B.Z.<.U v u y y y y y y 5 5 5 5 5 5 < < 7 < < 7 p p p p p p p p p p h h h h h h h h h h h h h ",
"r.r.S.v.R.!.R.R._._.!.R.R.H.H.H.M.1.#.G c k k y y y y y 5 5 5 5 5 5 < < < < < < 7 p p p p p p p p p p h h h a h h h h h h h h f ",
":.v.v.F.R.R.!.^.'._.'.H.H.S.A.1.#.H N v c k k u 6 5 5 5 5 5 5 5 5 < < < < < < < < p p p p p p p p p p h p h h p h p h h h h h s ",
"r.v.F.H.R.!./.R._.^.!.S.M.;.&.] F D N v l k u y 6 5 5 5 5 5 5 5 < < < < < < < < < p p p p p p p p p p p h h h p p p p p h h s s ",
"F.F.R.F.R.^.^.B.!.p.q.y.#.[ ' ) F D N v l k u y 5 5 5 5 5 5 5 5 < < < < < < < < < p p p h h p p p p p p h p p p p p p p h s s s ",
"H.!.!.R.H.H./.e.p.-.| ) ) ' ' ) F F N v l k u y y 5 5 5 5 5 < < 5 < < < < < < < < p p p h p p p p p p h p p p p p p p p f y s y ",
"R.^.H.B.B.p.T.-.U C B / ) ' ` ) F N N v c k u y y 5 5 5 5 5 5 < < 5 < < < < < < < p p h h p p p h h h h p h p p p p p f s s y y ",
"T./.C.e.*.*.| V m m B / ] ' ` ) F N N v c k u y y y 5 5 5 5 < 5 < < 5 5 5 5 < < < p p p p h p p p p h h p p p p p p h s s s y y ",
"p.H.q.| C m m m m m B ) ) ` ` ) F F N v c k k u y y 5 5 5 5 5 5 5 5 5 < < < 5 5 5 p p h p p p p p p p p p p p p p h s y y y y y ",
"-.-.U m m m m m m m F ) ] ` ` ) F F N v v k k u y y 5 5 5 5 5 5 5 5 5 5 5 5 5 5 5 h h a h p p p p p p p p p p p p s y y y y y d ",
"H B m m m m m m m B F ) ) ) ` ) F F N v c k l d y y y 5 5 5 5 5 5 5 5 5 5 5 5 5 5 h h h h h h h p h h p p p p p s y y s y y y u ",
"m m m m m m m m B B F ) ) ) ) ) F F N v v k l d y y y 5 5 5 5 5 5 5 5 5 5 5 5 5 5 h h h h h h h h h h h h h h f y y y y y u d d ",
"B B B m m m B B B B / ] ) [ ) ) F F N v v l l d y y y y 5 5 5 5 5 5 5 5 5 5 y y y h h h h h h h h h h h h h f y y y y y y d d d ",
"B B B B B B B B B B / ) [ [ ) ) F F N v v l l d d y y y y 5 5 5 5 5 5 5 5 5 y y y h h h h h h h h h h h h h y y y y y d u d d d ",
"B B B B B B B B B ^ / ' [ [ ] ) F F N v v l c l d y y y y 5 5 5 5 5 5 5 5 5 5 y y h h h h h h h h h h h h s y y u u d d d d d u ",
"B B B B B B B B ^ ^ ( [ [ [ ) ) F F N v v c l l d y y y y y 5 5 5 5 5 5 5 5 5 5 y f h h h h h h h h h h s y y y u d u d d u u k ",
"B B B B B ^ ^ ^ ^ / _ [ [ [ ) ) F F N v v c c l d d y y y y y 5 5 5 5 5 5 5 y 5 5 f h h h h h h h h h s u y y y u u d d u u u k ",
"B B ^ ^ ^ ^ ^ ^ ^ ( _ [ [ [ ) ) F F N v v c c l l d d u y y y y 5 5 5 y 5 5 5 5 5 f h h h h h h h h f u y u y y u u u d u u k k ",
"^ ^ ^ ^ ^ ^ ^ ^ ^ ( [ [ [ [ ) ) F F N v v v c l l l d d y y y y y 5 5 y y 5 y y y f f f f f h h h f y y y u u u d d u u u k k k ",
"^ ^ ^ ^ ^ ^ ^ ^ ^ ( [ [ [ [ [ ] F F N v v v c l l l d d d y y y y y y y y y 5 5 y f f f f h h h h s y u u u u u u d u u k k k k ",
"^ ^ ^ ^ ^ ^ ^ ^ ^ ( [ [ { [ [ ) ) F N N v v c l l l d d d d u u u y y y y y y y y f f f f f f f s u u u u u u u u d u u k k k k ",
"^ ^ ^ ^ ^ ^ ^ ^ ^ _ [ [ { [ [ ) ) F D N v v c l l l d d d d d d u u u u u y y y y g f f f f f d u u u u u u u d u u u k k l k k ",
"^ ^ ^ ^ ^ ^ ^ ^ / _ [ { { [ [ ) ) F D N v v c l l l d d d d d d u u u y u u 6 6 y g f f f f g u u u u u u u u u d u u k l l k k ",
"^ ^ ^ ^ ^ ^ ^ ^ / _ [ { { [ [ ` ) F D N v v c c c l d d d d d d s y y y y y y y y f f f f g u u u u u u u d d u u u k k l k k k ",
"^ ^ ^ ^ ^ ^ ^ ^ ( _ { { { [ [ ) ) F F N v v v c l l l d d d d d d d y y y y y y y f f f f d u u u u u u d d u d d d k k k k l l ",
"^ ^ ^ ^ ^ ^ ^ ^ ( [ { { @.{ [ [ ) F F N v v v c l l l d d d d d d d y y y y y y y f f f d u u u u u d d d d d k l l l l k l k l ",
"^ ^ ^ ^ ^ ^ ^ ^ ( [ { { @.{ [ [ ] F F N v v v c l l l d d d d d d d d d s y y y y g f d k u u u d d d d d d u d l k l l k l l l ",
"^ ^ ^ ^ ^ ^ ^ ^ ' [ { { @.{ [ [ ) F F N v v v c l l l d d d d d d d d d d s y y y f d k u u u u u d d d d d d k l l l l k l l c ",
"B B ^ ^ ^ ^ ^ ^ ' [ { { @.@.[ [ ) H F N N v v c l l l d d d d d d s d d s s s s y d k u u u u u d d d d d d l l l l l l l l c c ",
"B B B B B B ^ / ' [ { { @.{ [ [ ) F F D N v v c c l l l d d d d s d d d s s s s y u u u u u u d d d u d d d l l l l l l l l c c ",
"B B B B B B ^ / ] [ { { { { [ [ ) ) F D N v v c l c l l d d d d d d d d d d s s y u u u u u u u u u d l l l l l l l l c c c c c ",
"B B B B B B B / ] [ { { @.{ [ [ ) ) F D N v v c c c l d d d d d d d d d d d d y y y u u u u u u u u d l l l l l l l l c c c c c ",
"B B B B B B B / ] [ { { @.@.[ [ ) ) F D D v v c c c c d d d d d d d s d d d s y y y u u u u u d d d d d d d l l l l l c c c c c ",
"B B B B B B B / ] [ { @.@.@.{ [ ) ) F D D v v c c c c d d d d d d d d s s s y y y y u u u u u u d d d d d l d l l l c c c c c v "
};
