/* XPM */
static char *_54d0dc6047049a784ea3e9250fe5bf7lNbkVXfkRecRhkPv[] = {
/* columns rows colors chars-per-pixel */
"64 64 256 2 ",
"   c #1B0202",
".  c #121702",
"X  c #250505",
"o  c #2B0506",
"O  c #290809",
"+  c #2C0A0B",
"@  c #350506",
"#  c #340B0C",
"$  c #3C0C0C",
"%  c #301609",
"&  c #340F11",
"*  c #3C0E11",
"=  c #3C1211",
"-  c #381511",
";  c #1C2606",
":  c #322F0C",
">  c #273705",
",  c #45070B",
"<  c #45090B",
"1  c #4A0A0B",
"2  c #580B09",
"3  c #48110D",
"4  c #55150A",
"5  c #5D140B",
"6  c #4C0E10",
"7  c #5B0712",
"8  c #5C0A15",
"9  c #5B0C19",
"0  c #431313",
"q  c #4B1313",
"w  c #4A1A18",
"e  c #531414",
"r  c #581716",
"t  c #541C1B",
"y  c #5C1D1B",
"u  c #69020C",
"i  c #71010F",
"p  c #65170D",
"a  c #600A15",
"s  c #620E19",
"d  c #780612",
"f  c #7B0414",
"g  c #691816",
"h  c #631C1B",
"j  c #771919",
"k  c #4A2318",
"l  c #5A211D",
"z  c #463817",
"x  c #523310",
"c  c #6B211B",
"v  c #68231B",
"b  c #782519",
"n  c #74291E",
"m  c #6F3819",
"M  c #6A1D20",
"N  c #5B2622",
"B  c #503523",
"V  c #642323",
"C  c #6B2424",
"Z  c #6B2A27",
"A  c #722424",
"S  c #742B24",
"D  c #7B2D22",
"F  c #742C2A",
"G  c #7C2D2B",
"H  c #693523",
"J  c #7C3025",
"K  c #723728",
"L  c #75322D",
"P  c #7C332D",
"I  c #7B3731",
"U  c #384706",
"Y  c #37510A",
"T  c #3C5A0D",
"R  c #48480B",
"E  c #455906",
"W  c #514912",
"Q  c #5C5715",
"!  c #6C5018",
"~  c #496404",
"^  c #566704",
"/  c #53720B",
"(  c #69750E",
")  c #51512B",
"_  c #744B26",
"`  c #4E6225",
"'  c #7C6829",
"]  c #716C35",
"[  c #78794B",
"{  c #870516",
"}  c #95041C",
"|  c #88181A",
" . c #971A1D",
".. c #86271A",
"X. c #8B2D1D",
"o. c #96281D",
"O. c #8A341E",
"+. c #90301F",
"@. c #951B21",
"#. c #A60622",
"$. c #B70A28",
"%. c #A91B21",
"&. c #BE102B",
"*. c #872C26",
"=. c #9D2421",
"-. c #952A27",
";. c #9C2B24",
":. c #8C3324",
">. c #883727",
",. c #83342C",
"<. c #8C362B",
"1. c #933524",
"2. c #973728",
"3. c #9C3C2A",
"4. c #902E31",
"5. c #843431",
"6. c #8A3433",
"7. c #853B34",
"8. c #8C3C34",
"9. c #893E39",
"0. c #973733",
"q. c #933B34",
"w. c #943B3A",
"e. c #9B3D3C",
"r. c #A42423",
"t. c #AB2525",
"y. c #A42B26",
"u. c #AC2B26",
"i. c #A92E2A",
"p. c #B42728",
"a. c #B42C29",
"s. c #BB2C2B",
"d. c #AC322B",
"f. c #A5382A",
"g. c #B5372D",
"h. c #BC332D",
"j. c #A02E32",
"k. c #A73736",
"l. c #B83833",
"z. c #C4142D",
"x. c #CC0F30",
"c. c #C32D2D",
"v. c #CE2D2F",
"b. c #C2332E",
"n. c #C0382E",
"m. c #CB2C32",
"M. c #D82636",
"N. c #C43A32",
"B. c #C83834",
"V. c #D73934",
"C. c #E22A3A",
"Z. c #E4363D",
"A. c #82481C",
"S. c #884A25",
"D. c #974529",
"F. c #8D443B",
"G. c #94433A",
"H. c #994439",
"J. c #9C443B",
"K. c #8F5832",
"L. c #A7422D",
"P. c #A4473A",
"I. c #B74639",
"U. c #B05136",
"Y. c #9B6429",
"T. c #906731",
"R. c #C64736",
"E. c #DA4538",
"W. c #CB543B",
"Q. c #D55A3C",
"!. c #E44939",
"~. c #9E3F40",
"^. c #B23C44",
"/. c #E83941",
"(. c #9D4D47",
"). c #965440",
"_. c #A34342",
"`. c #AB4747",
"'. c #A54C41",
"]. c #AB4C44",
"[. c #B54B48",
"{. c #AD5144",
"}. c #AA534A",
"|. c #B45344",
" X c #BB5545",
".X c #B8554B",
"XX c #BC5A4A",
"oX c #AB5952",
"OX c #B95A54",
"+X c #916D47",
"@X c #AF6A55",
"#X c #AC7261",
"$X c #C7444C",
"%X c #D3484C",
"&X c #C85B47",
"*X c #C35D4C",
"=X c #D45E43",
"-X c #C85B56",
";X c #D15E5B",
":X c #E74A44",
">X c #EA5847",
",X c #F15E4F",
"<X c #C4634E",
"1X c #CC614D",
"2X c #D8644A",
"3X c #CB6451",
"4X c #CB6456",
"5X c #D46857",
"6X c #DB6C54",
"7X c #C47157",
"8X c #DE7159",
"9X c #E46544",
"0X c #EA6544",
"qX c #E56846",
"wX c #EB6A46",
"eX c #E56A4B",
"rX c #ED6D4A",
"tX c #F06744",
"yX c #F26A46",
"uX c #F46D48",
"iX c #EF7047",
"pX c #EE714C",
"aX c #F2744D",
"sX c #F4784F",
"dX c #E76C52",
"fX c #EC7554",
"gX c #E47559",
"hX c #E87659",
"jX c #EB7C5B",
"kX c #F27751",
"lX c #F47B53",
"zX c #F87F53",
"xX c #F37E59",
"cX c #DD6562",
"vX c #DB6A61",
"bX c #E56F64",
"nX c #718F09",
"mX c #718821",
"MX c #849806",
"NX c #8A922E",
"BX c #898552",
"VX c #B48751",
"CX c #8F9B70",
"ZX c #AAA578",
"AX c #EE815F",
"SX c #F78156",
"DX c #F5835C",
"FX c #F8855A",
"GX c #F8855B",
"HX c #C09E6C",
"JX c #EC8162",
"KX c #F48561",
"LX c #F68963",
"PX c #F88962",
"IX c #B7AC89",
"UX c #C6C59E",
/* pixels */
"9 9 9 9 9 9 9 9 8 s s s s a 7 a j .X.X.XXXXX.X|.|.{.{.].].].'.(.H.6.*.7.7.7.5.,.,.,.P P j d J D J S n n v X + * # O t t * w.-X;X",
"9 9 9 9 9 9 9 9 8 s s s s a 7 a j XXXX XXX*XXXXX X|.|.{.{.{.{.'.J.4.4.7.7.7.,.,.,.,.,.P j d J D G D n n v X + * # O y y 0 e.;X;X",
"9 9 9 9 9 9 9 9 8 8 s s s 8 7 a j *X*X*X*X<X*X*XXX.X|.|.{.{.].'.J.0.4.7.7.7.5.,.,.P ,.,.j d J D G n n n v X + * # + V M 0 _.5XcX",
"9 9 9 9 9 9 9 9 8 s s s s 8 7 7 j <X*X*X3X3X*X*X*X*XXX.X|.|.].'.J.0.4.7.7.7.,.,.,.P ,.P j d J D G D n S v X + * * + V C w _.cXcX",
"9 9 9 9 9 9 9 9 8 8 s s s 8 7 7 j 3X3X3X3X3X1X3X1X&X*XXX X|.{.'.J.0.4.9.9.7.7.,.,.,.,.,.j d D D D D n S v X + 0 * + C F w _.cX;X",
"9 9 9 9 9 9 9 9 8 8 s s s 8 7 7 j 3X3X3X3X3X1X5X1X1X&X*X X|.|.{.P.0.4.8.8.7.7.,.,.,.,.,.j d J J J D n S v X + 0 * + F G t _.cX;X",
"E.E.N.N.N.n.g.d.i.;.-.j g 8 7 7 j 5X5X6X6X6X6X6X5X1X1X&X*X.X|.{.P.0.4.8.7.8.7.,.,.,.,.,.| f J J J D n n g o + 0 0 + G 5.t _.cX5X",
"!.!.E.E.E.!.!.!.!.!.!.!.!.E.h.y.-.6X6X6X6X6X6X6X6X6X2X1X*XXX.X|.'.k.j.8.8.<.5.,.>.,.,.,.| f J D D n n n v X # q 0 + 5.6.N `.cX;X",
"E.V.V.V.V.V.E.!.!.!.E.E.E.E.E.E.=XgX8XgXdXdXdXgXdXdX2X2X1X*X X|.].k.j.q.8.<.<.>.>.,.,.,.| f D J D n n n v O # q q # 6.w.V `.bX5X",
"<.<.q.q.q.e.P.e.j.k.XX<X3X6X8X8XgXgXgXgXgXhXhXhXhXgXdX6X2X1X&X X].k.j.w.q.<.<.<.,.>.>.>.| { D *.D n n D n O # e e # w.~.C `.cXcX",
"F.G.G.G.J.'.{.'.k.^.XX3X5X8X8XgXhXgXgXhXhXhXhXjXhXhXgXdX2X2X&X X|.k.k.w.q.<.<.<.>.>.>.>.| f *.>.>.D D D n o # y r & e.`.F `.cXcX",
"8.G.G.G.J.'.{.].^.^.*X3X6X8XgXhXjXjXhXjXjXjXjXjXfXfXhXdX6X2X&X X|.I.k.#XG.q.<.<.<.,.>.>.| { >.>.:.*.D D b o # V V & ~.`.F `.bXcX",
"8.G.G.H.P.'.{.].^.[.3X5X6XgXhXjXjXJXjXjXjXxXjXxXjXjXfXfXdX2X=X&X.X|.U.K.+Xq.<.<.<.<.<.:.| { :.:.:.*.*.n b o * C V & _.[.F [.bXcX",
"8.G.G.J.P.].|.|.^.[.3X6X8XhXjXjXAXDXDXDXxXxXxXxXxXxXlXfXdXeX2X&X XI.k.K.T.] 8.<.<.<.<.:.| { :.:.:.*.*.n b + $ C C & _.[.P [.cXcX",
"G.G.J.J.'.{.|.|.^.$X5X8XgXhXjXAXKXKXDXDXDXDXDXDXxXxXxXfXeXeX2X&X&XI.l.P.H.K.] _ <.<.:.:.@.{ :.:.:.:.:.*.b o * A A : K.P.W ].cX;X",
"G.G.J.P.'.{..X|.^.$X6X8XhXjXAXKXKXKXKXKXDXDXDXDXxXDXxXfXpXeX2X=XW.I.l.P.3.2.>.Q Q >.:.:.@.| 1.2.1.1.:.:.*.: = m ! ~ T.' _ U.5X;X",
"G.H.J.P.].|.XX X[.$X6XgXhXjXJXKXKXKXKXDXKXKXDXDXDXDXxXkXrXqX2X=XW.N.a.L.3.2.<.>.W W Q :.-.] <.2.2.1.1.A.*.~ k / / / ( T.' Y.5X4X",
"G.H.J.P.].|.XX X$X$X6XgXjXAXJXKXKXLXKXKXKXPXDXGXDXDXxXlXpXeX9X=XW.N.p.L.3.<.<.<.<.W E Q q.CX3.3.3.3.3.! ! ~ z / / ~ ( ( _ Y.3X-X",
"G.H.J.P.]..X*X&X$X%X8XhXjXAXKXKXKXLXLXKXDXGXGXDXDXDXxXlXfXpXqX=XQ.N.s.L.f.2.1.<.1.>.R E ] IXS.L.L.A.S.S.E R R ~ ~ T ( T._ `.5X-X",
"H.J.P.P.|. X&X&X$X%XgXhXjXAXKXKXLXLXLXPXGXGXGXPXGXDXxXlXkXpXqX2X=XR.s.I.L.2.2.<.<.1.m > T CXQ ! L.L.Q S.T U R T W E ' |.7.oX5X-X",
"H.J.P.P.U. X*X&X$X%XgXjXjXDXKXKXLXLXLXGXGXGXPXGXGXDXxXlXlXpXqX9XQ.E.c.L.3.3.1.1.1.1.3.x > ` ' K.! D.D.E ! U R R Q Y K.OXF.}.4X-X",
"H.P.P.U.|. X*X&X$X%XgXjXjXDXDXKXLXLXDXDXGXGXGXGXGXDXDXxXlXkXpXqX2XE.b.f.3.2.:.1.1.1.2.S.> > ' ' ' Q ' Q Q U U W ! z U..XG `.;X[.",
"J.P.P.U. X&X1X&X%X%XgXhXjXDXDXDXKXPXDXGXGXGXGXGXGXGXDXxXlXlXpXqX2XE.c.L.L.2.+.1.1.1.3.D.: ) ] VXBXBX` _ U > : _ K.B oX.XP P.-X.X",
"j.0.0.l.k.l.B.l.%X:XgXhXjXDXDXDXDXDXGXDXGXGXDXGXGXSXSXxXlXfXpXqX9XE.c.L.L.+.+.+.1.2.2.2.! +XCXHXZXZX! U R : : K.@Xk ].[.G `.-X.X",
"*.0.k.*.l.l.-.$XB.B.hXhXjXDXDXDXDXDXDXDXGXGXGXDXSXSXxXxXlXaXpXeXqXE.s.L.2.+.f.+.1.2.3.f.S.K.BXUXCXT.U.R R > z #X}.w `..X5.`..X`.",
"k.0.-.l.j.d.N.-.B.V.I.%XjXDXDXDXDXDXGXGXGXGXGXGXGXSXzXlXlXaXpXeX9XE.u.L.2.2.f.+.1.D.3.S.d.m T.IX] U. XY.> > [ (.(.- `..XP `..X[.",
"-.i.d.*.l.l.*.R.b.{ i z.fXDXDXDXDXDXGXGXGXGXGXGXSXSXzXlXsXaXpXwXqXE.c.L.2.f.1.:.>.D.S.P.@Xx ! ] `  XVXVXQ > B J.B - '.).I `..X[.",
"i.d.;.d.f.d.l.f.a.| i z.dXDXDXDXDXDXDXDXDXGXDXDXSXzXzXsXsXaXpXeXqX!.V.:.1.1.b :._ K.S.+XK.x x ` ] HXNXNXNX> B _ z B z ) z K.+X+X",
";.y.i.f.g.l.;.B.s.i i $.dXDXDXDXGXPXDXGXGXGXGXSXzXzXzXsXaXaXrXwXqX!.V.:.3.1.>.2.>.K.W ( Y.^ U / Q NXNXNXmX> - ; ) ) BX_ m K.K.G.",
"i.i.y.d.g.l.g.l.a.i u $.,XDXDXDXDXPXGXDXGXGXGXGXSXzXzXsXaXaXrXwX9X!.V.L.1.1.O.T.S.m _ ] MXnX^ / mXMXnXNX^ : : U z z G.T.] H.P.'.",
"i.i.-.d.l.d.g.N.s.| u &.,XDXDXDXKXGXDXGXGXGXGXSXzXzXsXaXaXiXrX0X9X!.V.I.b :.X.1.A.R A.! / MXnX( nXMXnX( U U : : H w oX}.H G.`.`.",
"-.;.d.;.h.B.;.V.s.u u $.,XDXDXDXDXDXDXGXGXGXGXSXzXzXzXlXaXaXrX0XQ.h.v.Q.b X...X.1.m E x z ^ nXnXnXnXnXE ; ; . k K 0 `.[.C J._.e.",
"a.d.*.g.l.d.h.l.s. .u $.,XDXDXDXDXxXGXGXGXGXGXSXxXzXzXlXaXaXrX0XQ.| | Q.1.....X.X.p O.U v ! ^ ( ( / nXY ; % ; k e.0 5.w.C e.`.J.",
";.;.d.;.n.b.i.B.s.| u #.>XDXDXxXDXDXGXGXDXGXDXSXzXzXzXlXaXaXrXwXqXE.| L.I.g ..X.b 4 f.m z x ^ ~ ~ ~ / U . . . K Z - G._.C e._.e.",
"d.d.-.g.l.a.g.B.c. .u #.:XDXxXxXDXDXGXGXGXGXSXSXzXlXlXaXaXaXrXwX2X!.c.v I.p ....b 4 f.b ! x z ~ E Y ~ U . % ; k 8.0 _.`.Z w.e.J.",
"i.y.y.d.h.d.g.h.t.%.u } :XDXDXDXDXDXGXGXDXDXDXSXzXlXlXaXaXaXrXwXQ.a.v.2...X...b b 5 1.b ;.K I l H K _ _ B l k F 5.0 w.P.V w.w.F ",
"i.y.y.y.h.h.-.b.v.| u } /.xXDXDXKXLXGXGXGXSXxXxXlXlXkXaXaXpXrXqXqXB. .W.b +.b p g 5 X.v g C y r C F L L L Z N C q.0 e.e.V 6.w.w.",
"u.d...h.N.;.b.l.t.t.u } Z.xXDXDXDXDXSXGXGXDXxXxXlXlXkXaXpXpXwXqXqXE.t.f.L.b b 5 5 r p v v v q y l v l l l t 0 k 7.0 e.e.v 6.6.5.",
";.=.a.;.a.b.-.s.c.r.u } Z.jXDXDXDXDXSXDXGXDXxXxXlXsXlXaXpXrXwX9XqX!.v.b f...g 4 5 4 % % n r 3 h r y r e q q = N I w e.e.y 6.6.F ",
"t.a.| a.h.i.g.b.s. .u { M.fXxXDXDXSXzXSXDXSXSXzXlXaXaXaXpXpXwX9XQ.N.v.I.b 1.p 4 4 B z : e r r r r r e q 0 0 = Z _.0 e.w.y 5.P G ",
"=.=.u.y.a.n.u.a.p.b.u { M.fXxXxXxXxXxXxXDXxXzXlXsXaXaXaXaXpXwX9X9Xh.} R.1.p b 4 4 3 3 H r e e r e e q 3 < 0 = V e.0 w.w.y ,.P 5.",
"t.a.o.t.b.h.i.b.s.d d { M.fXxXxXxXxXzXlXSXSXzXsXlXaXsXaXaXpXwX9X9XE.%.X.L.j p 5 5 1 1 X.r 6 3 e q 6 < < < $ = w 8.= q.w.y F G 5.",
"=.t.;.t.a.g.s.t.p.s.| { M.pXlXxXDXSXzXzXzXxXlXlXsXaXaXaXaXpXwX9X9XE.v...b o.5 p 5 4 4 +.< @ @ $ $ < $ $ $ $ = w k % P w.y e C F ",
"=.d.r.;.b.b.d.B.c.| | { z.dXjXxXxXxXlXlXzXzXsXlXsXaXaXaXpXrXwX9X9XE.v.R...p p p p 4 5 <.L l w w $ o o o o @ # w L 0 5.8.r q F 0 ",
"t.p.;.s.s.l.a.u.s.|  .f z.0XfXlXxXxXlXsXlXlXlXlXlXaXkXaXaXpXeXqX9XE.v.W.I.b 2 g 5 2 5 H.7.L I 7.L Z l 0 # o + y w.0 6.6.t r C 0 ",
"=.i.r.y.b.r.h.h.p.p. .d z.>XfXlXxXxXsXlXlXlXlXlXlXaXaXpXaXpXrXqXqXE.v.W.W.g.p 2 g 5 5 (.7.9.9.9.7.L Z N t t t C w.0 ,.6.q r $   ",
"t.t.;.u.t.h.=.p.v.u =.f z.>XfXkXlXkXkXaXaXaXaXsXaXaXaXaXrXrXrXwX9XE.v.W.W.R.;.p 2 p h G.9.7.7.7.I L F Z Z N w C 6.= 5.6.q $ # X ",
"=.y. .u.h.| b.p.%.p.r.d &.>XpXpXkXaXaXaXaXaXaXaXaXaXaXaXrXrXeXwX9XB.%.g.g.f.f.o.2 5 G 9.8.5.I L L F Z Z V N w C 5.0 S ,.e # V t ",
"=.r.r.r.t.b.o.a.c.j r.d $.:XpXpXpXpXpXaXaXaXpXpXpXrXpXaXrXeXwXwX9XV.%...j j j b p p 7.5.5.P L F Z C V V N N w G 5.= A 6.q q C 6.",
"=.r...a.s...b.a. .=.t.i $.:XrXpXpXpXpXrXrXpXrXpXrXwXrXrXwXeXeXqXqXE.c.o.j 5 2 2 2 g F S S S Z Z C V N l N t q G 6.= A ,.$ y V G ",
"=.=.t.t.y.b.=.p.p.r.t.i $.Z.wXrXpXpXrXrXrXpXrXrXrX0XwXwXwXwXwXwX9XE.c.R.f.X...*.<.A $ < e r y y y y r t t t 0 A 6.= A G < y q G ",
"r.t...s.s.y.N.b.p.d r.u #.Z.eXrXpXpXrXrXrXrXrXrXwX0X0XrXfXjXjXjXbXbXbXbX8X5X5XOX}.G.F.I t o o @ < 3 q w t w @ A 6.& A G 0 $ O F ",
"t.;.a.a.h.N.b.s.%.p.p.u #.C.wXpXpXpXrXrXrXrXrXwXwX0X0X0.5XvX5X5X4X4X-X*X.X.X].J.8.l L 9.9.F.L t $ X o # 0 0 @ A 6.& h A $ o $ t ",
"t.p.d.s.h.N.h.N.s.| =.u #.M.qXeXpXpXrXrXrXwX0X0X0X0X0Xj _.[.].].'.P.e.w.8.,.G A A q y v C F F L L Z t = 0 w o A 5.# r v # @ y G ",
"t.d.u.a.h.y.s.s.p.p.r.u } M.9XeXpXrXrXrXpXrXwXwXwX0X0Xj G 6.,.,.G G D A C h y r r 0 r y h h y h h y r e 6 < X A 5.+ r A # q h y ",
"r.=.a.u.o.h.u.a.p.r.r.u #.M.9XeXpXpXrXrXrXwXwXwXwX0X0Xg v h r r r r e q < r h y r e 6 1 < < , , < , , < < , o g 5.# r A $ q q y ",
"r.u.| r.s.o.t.s.c. . .7 } M.>XeXrXrXrXrXrXrXwXwX0X0X0Xs 3 3 Z I F.(.(.(.(.F 1 < < , , < , < < < < , , , , , o g 5.& h C # # @ y ",
"=.| a.t.| s.r.u.d c.p.2 } M.>XwXrXrXrXrXrXrXwXwX0X0X9X8 q }.OXOXOXOXOXoXoXF , , , , < , , , , < < < , , , , @ g 5.& e 0 #     o ",
" .t. .%.m.t.v.V.V.m.s.m./.C.>XrXrXrXrXrXrXwXwXwX0X0X0X2 I G.(.(.(.(.(.(.(.M 1 , , , , , , , , , , < , , , , @ g G # @ @ o   X < ",
"r.j  .{ #.z.M.x.x.x.x.x.x.z.:XwXrXrXrXrXrXwXwXwXwX0X0Xb C S P 5.9.9.9.F.F.y , , , , < , , , , , , , , , , , , g A @ @ @ X   -.V.",
" .r. .i { { } #.$.#.#.#.#.z.:XwXrXuXrXrXrXwXwXwXwX0X0Xt.;.j v C S F F L I r , , < , , , , , , , , , , , , , 1 j h $ @ X X @ q g ",
"t.j { { f { { { { { } #.z.C.:XrXaXuXyXyXyXyXyXyXyXtXtXu.tXQ.i.j h v N N V e , , , , , , , , , , , , , , , , 3 {.P.7Xw - k < 3 s ",
" .| d } f d { #.M.C.Z.C.M.M.Z.wXrXuXyXyXyXyXyXyXyXyXyXa.uXuXuX>Xd.g r t t q , , , , , , , , , , , , , , , , 1 <.2.:.q.P.7.r @ 2 ",
"t.| d { f i { #.#.$.z.x.x.x.Z.wXuXuXuXuXuXuXuXuXaXuXuXh.uXaXkXlXLXJXOXh q 6 , , , , , , , , , @ @ @ @ @ < 6 j *.:.2.<.D.<X@Xr 7 "
};
