/* XPM */
static char *_5c98dd67d8b4dac8c4ca5f0313edcb9fQEKRqp2w89pJxOL[] = {
/* columns rows colors chars-per-pixel */
"64 64 49 1 ",
"  c #EF9E9E",
". c #F09E9C",
"X c #EFA09F",
"o c #F0A09F",
"O c #EF9FA0",
"+ c #F09FA1",
"@ c #EFA1A4",
"# c #EFA5AB",
"$ c #EFA9AE",
"% c #F0A1A4",
"& c #F0A4A9",
"* c #F0AAAF",
"= c #EFADB2",
"- c #F0ABB0",
"; c #EFB1B6",
": c #EFB5BA",
"> c #EFB9BE",
", c #F0B5B9",
"< c #EEBDC2",
"1 c #EFC0C8",
"2 c #EEC3CA",
"3 c #EEC4CC",
"4 c #EFC6CE",
"5 c #EFC8CF",
"6 c #F0C6CF",
"7 c #EFC7D0",
"8 c #EFC8D0",
"9 c #EFCCD4",
"0 c #EFCDD5",
"q c #EFCFD8",
"w c #F0C7D1",
"e c #F0C9D1",
"r c #F0CCD5",
"t c #F0CED6",
"y c #F0CFD8",
"u c #EFD0D8",
"i c #F0D1DA",
"p c #F1D3DD",
"a c #F1D4DD",
"s c #F1D7E1",
"d c #F1D9E3",
"f c #F2DBE7",
"g c #F1DCE7",
"h c #F2DDE8",
"j c #F2E1EA",
"k c #F1E3EC",
"l c #F1E4EE",
"z c #F1E6F0",
"x c #F1E8F1",
/* pixels */
"..........         ........          ...... .. .................",
"...........   .  ..   .      OOO%O%o  X . .. ... ...............",
".........    . .  .+    OOOO%O%%OOO%%O%o ooo . ... . ...........",
"........     .. + .     OO%%%%%%@%%%%%%%%%%%oo . .....   ... ...",
".......      .. O OOOOO%%O%%%%%%@%%%%@%%%%%%%% oo..... ...      ",
"......      ++ OOOOO%%%%%%%%%@%%%%%%%%%%%@%%%%%%%oo  ... ..  .. ",
".....   . +++OOOOOO%%+%%%%%%%%%%%%%%%%%%%%%%%%%%%%O%O     . ....",
"....    + + OOOOOO++%+%%%@%%%%%%%%&%%%%&&%%%%%%%%%%%O%OOO ... . ",
".    ...  OO OOO%%%@%%%%%%%%%%%&$;w;##=<4>=&%%%%@%%%%%%O%OOOO   ",
"     ..  OO OO++O%%%@%%%%%%%%%$4ytga<tpsssdt$&%%%%%%%%%+OO  OOOO",
"   .     OOOO+O+%%%@%%%%%%%%#$6fklxxkfhjhghht<$%%%%%@@%%%%@%OOOO",
" ..... OOOOOOOO%%@%%%%%%%%%=1yhkllzlkjjjjhhhgp<$%%%%%@@@%%%++%O+",
" ....  OOO%OO%%@%%%%%%%%%%$egkllxljhjhhhhjklkf8>#%%%%%%%%%@%+%+O",
". .  OOOOO%%@%@%%%%%%%%%%&:dkllklkjhhgffghkljhs5:$%%%%%%@@%%@@%%",
"..  OOO%%%%@@%%%%%%%%%%%&&1fjkjhjjjhgffffhjkhgfa8<&%%%%%%%%@%@%%",
" .OOOO%O%@@%@%%%%%%%%%&&&=8fhjhhjjhgfdffffhhggfdi<#&%%%%%%%%@%%@",
".OOOO%O%@@#%%%%%%%%&&&&$=;ifhjhhjhgffggfdfgffdds0<#&%&%%%%###@%#",
"OO %%%%%%%%%%%%%&&&&&$:7aafhhhjjjhghgghffdddssai1=#&##&&%##$###$",
"OOOO%O%%%%%%%%%&&&&&$1afjkhhhjjjhgghhfgfdssapit8>$$&#&&##$$===;;",
"OOO%%%%%%%%%%&&&&=>>4ahkjhgjjjjhgfffgffsaapii084>=$#&&##$===;;>:",
"%%%%%%%%%%%%&&&#$18ifhjjjjgjjjhhfdssddsapiiyyafi1>;$$$#$=;;;:><>",
"%%@@%%%%%%&&#;==<tpdhhhghhhjjjhfdsaaaappi00tyfjhfsi1=$$$=;::><<<",
"@@@%%%&#$##$:>>1ysddghhghhjjjhfsspiiiiii0tt0tshfhhdi:$$=;:>>>><<",
"@%@@@##;>;$=<<4ysghhjjjjjjjhhfdsapuyqq0t08880idfffsi>===;::::><<",
"@@@%@#;><<;=<8isfhhjkllkkjhffdsapi0t008888888qsfspi8:====;;;::><",
"@%%%@$><14<>8iasfhhhjklkjhffssapi0088888444448yiit81;=====;;:>>>",
"%%%%#=>144410adfdfffhhjhhffdsapi0t88884444444880084<;=====;;::::",
"%%%%#=<4888tipsdsssdfffgfdddsai0888844444444448844<;;=====;;;;==",
"%%%@#;<1480iiiiaaassddssddddsay8844444444414444441<;;==========$",
"%%%%&=>1480uy00iipaaassasssdspt84444444411144444441<;=======$$$$",
"%%%@##;<14800080tiiippppaaaapi0444444421111144444841<;======$$$$",
"%%@###=;><1888888000yiiiiiii0084114122211111111440008<==-$$$$$$$",
"%&####$=><<444448880t00000888841111211111111111140008<==$$$$$$$$",
"%#####=;><114444448888888844441111211<<<<<<<<1111444<;==$$$$$$$$",
"@##&&#=::<<1114444444444441111111<<<<<<<<<<<<<<<<<>>;==-$$$*$$$#",
"@####$=:><<<11111111111111111<<<<<<<<<<<<<<<<<<<>;;;===-$$$$$$$#",
"@####$=;>><<<1111111<1<<<<<<<<<<<<<<<<<<<<<<<<<11:;;===-$$$$$$$#",
"@@###$=;:>><<<<<<<<<<<<<<<<<<<<<<<<<<<<<<<<<<<14881<;==-$$$$$$$#",
"@###$$==;:>><<<<<<<<<>>>>>>>>>><<<<<<<<<>><<<<148i84:==-$$$$$$$#",
"#####$$=;;:>><<<<>>>>>>>>>>>>>>>>><<<<<>>><<<1114088>===$$$$$$$#",
"#####$$==;;>>>>>>>>>>>>>>>>>>>>>>>>>>>>>>><<<1111888<===$$$$$$##",
"#####$$$==;;::>>>>>>>:>>>>>>>>>>>>>>>>>>>><<11111141>==$$$$$$$##",
"#####$$$$==;;;>>>>>>>>:::>::>>>>>>>>><<<><<<<111111<===$$$$$$$##",
"#####$$$$===;:>>>>>>:::::,:::::>>>>>><<<<<<><<<<<<<:===$$$$$$$##",
"@####$$$$$==;::>>>>:::,,:,,,:::::>>><<<<<<>>><<<>>:;==$$$$$$$$##",
"@####$$$$$==;;:>>:::,,,::,;,,,,:>>>>><<<<<<><<<:;;===$$$$$$$$$##",
"######$$$$===;;:::,,,;::::,,,,,:::>>>><<<<<<<<<>;====$$$$$$$$$##",
"#######$$$===;;;::,;:;::::,,:,,::::>>>><>><<><<>:===*$$$$$$$$###",
"##&####$$$$====;;:,::::::,,:,:,:::>>>>>>>><<>>>>:;=$$$$$$$$$$###",
"######$$$$$$===;;;;;;::;;;,:,:,::>>>>>>>>>>>>>>>:;=$$$$$$$$=$$$#",
"##&####$$$$$====;;;;;;;;;;::::,,,::>::>>:>>>>>>>>==-$$$$$$===$$$",
"########$$$$$=====;;;;;;;;;::::,,:::>:::::>>><<<<:=$$$=$$$==$$$$",
"########$$$$$==$===;;;;;;;;;;:::,,:::::>>>>>><<<<>=$$==$$===$$$$",
"########$$$$$$$$=====;;;;;;;;;;;:::,::::>>>>><1<<:=$$$$$$==$$$$$",
"##&######$$$$$$*======;;;;;;;;;;;;::,:;:>>>>><<1>==$$$$$$==$$$$=",
"##########$$$$$$$$==========;;;;;;::;;:::>>>>><<:=$$$$$$$$$$$$$=",
"#########$$$$$$$$$$$===========;;;;;;;;::::>>>:;;=$$$$$$$$$###$=",
"###########$$$$$$$$$===========;;;;;;;;;;;::;;===$$$$$$$######$$",
"#&#########$$$$$$$$$$============;;;;;;;;;;;===$$$$$$$#########$",
"##########$$$$$$$$$$$$-========================$$$$$$###########",
"##&#######$$$$$$$$$$$$$$=====================$$$$$$$$###########",
"##########$$$$#$$$$$$$$$$=$*===============$$$$$$$$$############",
"#############$$#$$$$$$$$$$$$$--======$=$$$$$$$$$$###############",
"############$#$$$$$$$$$$$$$$$$$$$$$$$$$$$$$$$$$$$#########&#&###"
};
