/* XPM */
static char * south_xpm[] = {
"64 64 315 2",
"  	c #1B2250",
". 	c #1A2250",
"+ 	c #1A2358",
"@ 	c #1A224E",
"# 	c #1B2255",
"$ 	c #1B2257",
"% 	c #1A2257",
"& 	c #1C2467",
"* 	c #532FB2",
"= 	c #DC3B7B",
"- 	c #DE3379",
"; 	c #D53273",
"> 	c #DC3876",
", 	c #E63B81",
"' 	c #EB3E84",
") 	c #EE3E85",
"! 	c #ED4284",
"~ 	c #F14386",
"{ 	c #EC3D83",
"] 	c #F4458C",
"^ 	c #F1408A",
"/ 	c #F03E86",
"( 	c #F74A91",
"_ 	c #E12F7A",
": 	c #DB2C73",
"< 	c #DD3275",
"[ 	c #EE4083",
"} 	c #F44389",
"| 	c #F04489",
"1 	c #F2488A",
"2 	c #E19954",
"3 	c #E1B042",
"4 	c #E3B241",
"5 	c #E5BE35",
"6 	c #E6C32D",
"7 	c #E6C42C",
"8 	c #E6C32E",
"9 	c #E6CA1D",
"0 	c #E6CA1E",
"a 	c #DB3A8C",
"b 	c #D8388A",
"c 	c #E23877",
"d 	c #DA3878",
"e 	c #E03A7A",
"f 	c #D33172",
"g 	c #CC3A89",
"h 	c #D52C71",
"i 	c #EF4288",
"j 	c #F03F88",
"k 	c #E3347B",
"l 	c #E23476",
"m 	c #F3488D",
"n 	c #DE5470",
"o 	c #E25571",
"p 	c #E2A14F",
"q 	c #E6C529",
"r 	c #EA3C7E",
"s 	c #E54180",
"t 	c #EA4585",
"u 	c #E43A7C",
"v 	c #E94083",
"w 	c #EE4488",
"x 	c #EF3F88",
"y 	c #F3438C",
"z 	c #EB357C",
"A 	c #DD2C7A",
"B 	c #D4246C",
"C 	c #DE7365",
"D 	c #E4C030",
"E 	c #EA407F",
"F 	c #E64585",
"G 	c #E24080",
"H 	c #EA4889",
"I 	c #D9266E",
"J 	c #D9715F",
"K 	c #DEA744",
"L 	c #C7296A",
"M 	c #C62364",
"N 	c #CD2B6C",
"O 	c #D53A76",
"P 	c #EE4989",
"Q 	c #DA1F6C",
"R 	c #D92A6E",
"S 	c #CE2369",
"T 	c #CE4B5F",
"U 	c #DDA93F",
"V 	c #BF2262",
"W 	c #B41959",
"X 	c #BA225F",
"Y 	c #F94C92",
"Z 	c #F95195",
"` 	c #F95699",
" .	c #FA5A9C",
"..	c #F64C91",
"+.	c #E32D73",
"@.	c #E83176",
"#.	c #CB1D64",
"$.	c #DEA940",
"%.	c #B5215C",
"&.	c #C72867",
"*.	c #D42A6D",
"=.	c #D22266",
"-.	c #C51C62",
";.	c #CC2266",
">.	c #D72670",
",.	c #D3715A",
"'.	c #F3458A",
").	c #F8498F",
"!.	c #CC1561",
"~.	c #C5145D",
"{.	c #D21E68",
"].	c #BC145A",
"^.	c #ED9D65",
"/.	c #F8478F",
"(.	c #D11C65",
"_.	c #F07B79",
":.	c #D11663",
"<.	c #E53581",
"[.	c #F25F84",
"}.	c #EC906D",
"|.	c #D00F61",
"1.	c #EE916E",
"2.	c #D97360",
"3.	c #ED9D67",
"4.	c #EB6F76",
"5.	c #EC7177",
"6.	c #C90E5C",
"7.	c #D0725A",
"8.	c #CF7158",
"9.	c #EB7F71",
"0.	c #F2837D",
"a.	c #D88B56",
"b.	c #D05167",
"c.	c #F57E80",
"d.	c #F58083",
"e.	c #CF1D68",
"f.	c #E29A59",
"g.	c #E5407E",
"h.	c #EC4986",
"i.	c #F26087",
"j.	c #EE9170",
"k.	c #F27E80",
"l.	c #CA135E",
"m.	c #CB195F",
"n.	c #C40C59",
"o.	c #E0756A",
"p.	c #E37669",
"q.	c #F23D83",
"r.	c #F04887",
"s.	c #F7638B",
"t.	c #F09273",
"u.	c #EDA663",
"v.	c #E48E5E",
"w.	c #E25772",
"x.	c #F0367E",
"y.	c #EE7A78",
"z.	c #EB7873",
"A.	c #F29274",
"B.	c #F5638B",
"C.	c #E4756C",
"D.	c #F17B7B",
"E.	c #C20957",
"F.	c #E48D5E",
"G.	c #E5776D",
"H.	c #EE7979",
"I.	c #DF7567",
"J.	c #D6645D",
"K.	c #E18D5D",
"L.	c #E9786F",
"M.	c #F35F86",
"N.	c #D27058",
"O.	c #DC8B56",
"P.	c #EC7C78",
"Q.	c #EBAB59",
"R.	c #EE7A76",
"S.	c #EC9C62",
"T.	c #EB9C64",
"U.	c #EF916F",
"V.	c #EA9069",
"W.	c #CD485A",
"X.	c #C64653",
"Y.	c #C84755",
"Z.	c #D77059",
"`.	c #F65193",
" +	c #ED8673",
".+	c #DFA741",
"++	c #D6894B",
"@+	c #D28845",
"#+	c #D36F55",
"$+	c #F1508E",
"%+	c #F5498D",
"&+	c #E32771",
"*+	c #C20655",
"=+	c #E82E76",
"-+	c #E4236F",
";+	c #F1387F",
">+	c #BB0E56",
",+	c #E49A57",
"'+	c #E58368",
")+	c #E98D62",
"!+	c #E58E62",
"~+	c #E24974",
"{+	c #E9916A",
"]+	c #E3516E",
"^+	c #C7185F",
"/+	c #E37568",
"(+	c #DC516E",
"_+	c #DA4E69",
":+	c #DF8B57",
"<+	c #DA3E6C",
"[+	c #EC5D7E",
"}+	c #E7915B",
"|+	c #DF8061",
"1+	c #DA2670",
"2+	c #D7546E",
"3+	c #E59A5A",
"4+	c #BD0D59",
"5+	c #DD7262",
"6+	c #DC7261",
"7+	c #EA7874",
"8+	c #DA7363",
"9+	c #E08C5B",
"0+	c #E09851",
"a+	c #D4316F",
"b+	c #DD7960",
"c+	c #DE8B58",
"d+	c #F5668C",
"e+	c #D64E67",
"f+	c #E93780",
"g+	c #E09B4F",
"h+	c #D86762",
"i+	c #E1A24B",
"j+	c #E3AE45",
"k+	c #EEA365",
"l+	c #F67B8E",
"m+	c #E09951",
"n+	c #C82866",
"o+	c #DB8F50",
"p+	c #DEA245",
"q+	c #EAB052",
"r+	c #EFA66D",
"s+	c #F19C74",
"t+	c #D44D61",
"u+	c #F58287",
"v+	c #F38286",
"w+	c #F58489",
"x+	c #E19A56",
"y+	c #E2925D",
"z+	c #EA5F7F",
"A+	c #F75798",
"B+	c #DA306F",
"C+	c #E69461",
"D+	c #E59B5B",
"E+	c #E98F64",
"F+	c #E88F68",
"G+	c #E68F64",
"H+	c #E29A56",
"I+	c #D7715A",
"J+	c #F66E8B",
"K+	c #EEA068",
"L+	c #DF5474",
"M+	c #D7516C",
"N+	c #F6578E",
"O+	c #F47583",
"P+	c #ED5880",
"Q+	c #E9AB54",
"R+	c #EE5D82",
"S+	c #E7C235",
"T+	c #68E24B",
"U+	c #E7CA22",
"V+	c #E7C924",
"W+	c #69E24C",
"X+	c #BC195D",
"Y+	c #E7C827",
"Z+	c #AD8B5B",
"`+	c #CB0F60",
" @	c #E7C62C",
".@	c #59E947",
"+@	c #6BE24C",
"@@	c #E16078",
"#@	c #D17873",
"$@	c #C27363",
"%@	c #B6815A",
"&@	c #C28466",
"*@	c #C6876F",
"=@	c #E7C237",
"-@	c #4CEF45",
";@	c #63E54A",
">@	c #5CE948",
",@	c #59EB4A",
"'@	c #74DD4E",
")@	c #85D053",
"!@	c #65E54B",
"~@	c #58EB48",
"{@	c #8DC654",
"]@	c #D45C76",
"^@	c #8FCC5A",
"/@	c #7CDA53",
"(@	c #6BE34E",
"_@	c #62E74B",
":@	c #65E64C",
"<@	c #8CD25A",
"[@	c #AEB963",
"}@	c #68E64C",
"|@	c #54ED47",
"1@	c #4FEE46",
"2@	c #5DE848",
"3@	c #83CF51",
"4@	c #86D254",
"5@	c #A3BA61",
"6@	c #E9A25C",
"7@	c #E7BD3F",
"8@	c #E9B54C",
"9@	c #E7C52F",
"0@	c #E7CC19",
"  . + . @ # $ % & * = - ; > = , ' ) ! ~ ) { { { { ) ] ] ^ / ~ ] ] ( ^ _ : < ( ] ~ ! ! [ { ~ } | | 1 | } ] ^ , 2 3 4 5 6 7 8 9 0 ",
"a b c d e d - f ; g = h < - - , ' ) i ! ) { { ' { ) ^ ^ ^ j ^ ] ( ( | k : ! , l l l { ) { ! | ^ ~ ! m ] ] ! : : : : n o o - p q ",
"r r s t u < < > = = - > c - l u v ! w ! ) { { ' ) ! | ) x i y ] ] ( | , z A B < l z z z z z z { { { | ] | - < < : : < : : : C D ",
"E r u t t t F u > > u r u > G H m | m w ' ' { { ' i | i ) { { { ) { x z I I : - , z z z k l z { { ^ ^ m , : : : : : : : : h J K ",
"r u > , ; L L M N h h N N O H | ~ ! ! w ' ' ' ' i ^ ^ | | | w i ! w P m Q k z k - , z z z { ' ) j ^ ) ; h B B R h h I h h S T U ",
"N M V W X M N ; < ; ; < u ! ! ~ x ) ' i ) { ) i ^ ^ ] ] ( Y Z Z `  . ...+.@.z : B s ' ' ' { { ) ^ / A #.S B I I h h R B #.#.#.$.",
"W W %.&.*.< - - < < c v ! ! ) ) { ' ' ! ! w m m m ..( Y Y Z Z Z `  . .| _ l c B =.w ! ! ! ) ! ~ ^ k S -.;.I h >.: h B #.-.#.#.,.",
"W V *.h < c - < - u ! ! ~ ! ) ) ) ! m ..( Y Y Y ( ( ( ( Y Y Z Y `  .` { : I S : c ! { [ [ ! | w ' B -.#.;.h h : : R S -.#.#.#.;.",
"N h < c k c u r ' ! | | ~ ~ | '.] m Y ( ).( ( Y ( ( ( Y Y Y Y Y Y Z ..: !.~.#.< >.: l u ' ' ! , *.#.#.#.S : : : : *.N #.#.#.;.S ",
"< c u u u ' ! w w | ~ | | '.| ] m ).Y Y Y ( ( Y m ( ( Y Y Y Y Y Y Z ! {.#.#.#.h : - : : : - - *.#.#.#.;.N - : : h N N #.-.-.#.N ",
"u u , v [ [ w 1 | | | ] '.} '.] ] ).).( Y Y Y Y ] ).Y Y Z Z Y Y Z m : !.#.#.=.R < l l l k c h #.].-.-.-.h h I B R B N -.-.-.;.B ",
"s v [ ! ! | m m | | | ] '.} ^.'.).).( ( Y Y Z Y /.).( Y Z Y Y Y m ' R #.=.(.{.I : l z z { - S -.-.-.;.;.B B B B : h N -.-.;.*.< ",
"' v ! ! | 1 m ..'.'.] ] ] ] _._.m ).( Y Y Y Z Y ] ] ( Y Y Y Z ] { k I :.B =.=.B : k z <.u I ;.-.-.-.;.N *.*.h < k N -.-.*.- u < ",
"! w w | | m m m m ] '.'.'.'.[.}.m ).Y Z Z Y Y ( ] ( Y Y Y ] ) z z z u |.:.=.B B I - z , 2 B -.-.#.;.;.*.*.R R l : -.N h < z > : ",
"w | | | | | ] m ] m '.'.'.'.[.1.] ( Z Y Y ( ).( m ] m | ! { z z z ! ' :.:.:.!.*.R < , c 2.2.#.#.;.;.N *.*.R *.< h h < h < c : *.",
"~ | | | | ] ] ] ] m m m m '.'.3.m Y Y Y Y m ] ] '.^ ! ' z z z z 4.5.w I :.:.6.:.=.< , : N 7.8.;.S B B R R : < - u : < < - - h *.",
"| | | | '.] m m m '.m m m m | 3.).( Z ..] ^ ~ / { { { u { z z ' 9.0...< {.(.(.(.(.(.h ; S a.b.*.*.: : : : < < k s u - < c c u r ",
"| | | | m m ] m m m m ] ] m m 3.m ).m P | ) ) { z z ' r [ ! | m c.d.| : e.!.!.#.;.~.#.< < f.- > > - - - - u g.P h.F F F P P 1 ~ ",
"| | | | ] ] m m m m m '.| m i.j.m m m 1 P v { { ! m w w | | ] m c.k.r =.l.m.#.#.-.n.B < o.p.c c u u u v v [ m Y ~ m @.{ q.q.} q.",
"P r.| | ] '.] m m m ] '.m ).s.t.m P P v ' ! w m ....1 1 m m m m u.u.c (.#.(.=.#.n.#.R < v.w.c c u r r v v | ).( ] '.z z x.x.j j ",
"| 1 | r.m '.] m ] m m m m m y.z.u u { u z 1 ..m )...m m m m m Y A.B.< {.(.(.(.n.n.#.: w.v.c c u r E E v w m ).( ( Y | r z z q.j ",
"| | | | m m '.'.] m m ] ! ' C.C.k u u v m m m ] ] m '.| | ] m ] D.D.< =.{.(.l.E.l.(.: F.n c u r E E v ! m m m ).( ).m m / q.q.j ",
"| | | | ] ] '.'.m ] | r u u G.G.z u ! m m '.'.| '.] | | | 1 | '.y.H.l B (.l.n.n.#.=.C I.c c u r r r ! | | '.] ] ).).1 ' | | | | ",
"| ~ | ~ 1 m m | | | r z u u G.G.r w | | | | | | '.'.| ~ | | | m D.y.c =.m.6.E.6.#.J.K.c c u u r r ! '.| } | | | ).m | u ! | ] | ",
"! ! ! | | m w [ { { r r r u L.L.w | | | [._.H.H.^ '.| ) ! ~ ] ] M.}.- S m.E.E.l.N.O.< c u u u r ! '.'.} } '.'.} '.m | z k w | P ",
"v v { { ! w w w ! ! t t v v P.Q.R.S.T.3.U.y.H.y.'.'.| ! ~ ^ ] ] m V.n #.W.X.Y.Z.Z.I < c u u r w '.'.'.'.} } } ~ ~ | | v u t `.` ",
"[ [ [ ' [ [ [ [ [ ! [ ! P m 1 }. +| | | | ^ ^ | ^ | ~ ! ~ ^ ] ] ] | C .+++@+++#+(.R c c u r | | '.'.'.'.| ~ ~ ~ ! w w u v m ..` ",
"w ! ! w [ | | w | | 1 1 m P w | | | | ~ | ~ ~ ^ ^ ^ ! ! ~ ^ ] m | | : (.l.E.!.#.B < c c u | | | | | | | | ~ [ { { [ v $+m '.! ..",
"| | | | ~ ~ | ~ ~ ~ | '.w | ! ~ | | 1 ] m | | | ] | | ~ | | ..Z Y m R (.l.l.l.#.R l c c r | | | | | | | ~ [ { ' { w `.m | ! r m ",
"! | ~ ~ ~ ~ ~ ~ ~ ~ '.| ! ! ~ | | | '.'.).m '.m m `.`.m m m ....Y | I l.l.#.6.;.c u z r r E [ [ [ ! ! w [ { r w m Y ).| | : i ^ ",
"z [ ~ | | } '.| r.%+| | ! ! ~ ~ ~ | '.'.m m | ] ] ] m ] '.m ..m m ! (.l.(.m.~.R u E r r r r [ w w ! ! [ r [ $+..( ).] | - B ! | ",
"@.z q.~ '.'.| | 1 1 | ~ ~ ~ ~ ~ ~ ~ ~ '.m m ] ] m ] m '.'.'.m m ..w B l.~.~.;.u g.v r r r r r E [ | | w 1 m Y ( m m ~ < l.u ^ ] ",
"+.+.z q.~ | | %+m | ~ ~ | ~ ~ ~ ~ | ~ | ] m m '.m ).m ] '.'.m ).Y t (.n.E.m.< c c v v r r r z [ ! w | ] m /.).).m | < l.B { ^ | ",
"+.&++.z { ~ 1 1 '.| [ ~ ~ ~ ~ ~ ~ ~ ~ ~ | m m ] '.] m m '.] m '.] < #.*+n.*.u R l r [ E r r r E [ | ] ] '.] m ] ! u !.#.r ! ^ ^ ",
"@.@.&++.z | r.| ~ ~ ~ [ ~ ~ ~ ~ ~ ~ ~ ~ ~ m m ).'.] ).m m m | | ! (.#.*+=.c c R l r [ E v E E v r.] ] '.'.] ] w - #.#.: { ! ~ ^ ",
"z z =+-+&+{ { ~ ~ ~ ~ q.q.;+q.~ ~ ~ q.q.~ ~ m ).m ).).m m m | | z !.l.=.l c c I R r v r E v [ w ] '.'.'.| ] r.v {.~.#.v ~ ~ | | ",
"r r r z r [ z @.z q.q.q.;+;+x.x.x.q.q.q./ ~ | m m /.).m m | | [ : n.;.c c @.c I R z [ r [ ! P r.| | '.'.| | w h ~.~.< w ! ! ) { ",
"{ r r t P r | q.z x.x.x.x.x.;+x.z z x.;+q.~ ~ 1 ).] ).| | ! [ [ B #.< @.c @.l I l c r [ ! P r.| ~ | ~ '.| w c ~.E.#.z ' ' ' ' ! ",
"{ r c P r.r ~ q.q.q.q.q.;+q.q.q.q.q.q.q.~ | | | /.m m ! ' u u < I I k @.@.+.+.R c l u t v [ 1 | | | ~ | | c #.E.l.: z ' ' ! w w ",
"r r l P ~ | ~ ~ ~ | ~ ~ ~ ~ ~ ~ [ ~ | ~ | | | w ! , : I #.B I R : z k +.+.+.R R l p.E E ! | | ~ ~ ~ } | u R >+~.=.c r ' ! P v ' ",
"E E u z { | | ~ ~ | [ [ [ w w w ! w ! [ ' ' u u ; R {.#.;.: : : : k k k l R I n ,+'+)+r [ ~ ~ ~ ~ ~ | u R ;.].#.: u r P P ! ! ! ",
"r u w [ @.w | ~ [ [ r r r z G.L.)+!+F.F.F.~+: I #.;.B B R z l l l l k k z l R {+c +.]+)+r | ~ ~ ~ ! , : N ].^+B u r P P w ! ! ! ",
"r h.| [ r k ! ! u l l c l F./+C (+(+(+_+:+<+B =.#.S *.B < l _ _ l l k , u [+{+' r k z }+}+~ ~ ~ ! - I !.-.>+;.u t P t w w ! u u ",
"g.t r < < c k c : : : : C |+: : I 1+I I I I I =.;.-.#.B _ : : A : : < , m {+2+- : : l z 3+z ! r I !.4+n.h ;.< G G = - - : : h : ",
"< R - u c : 1+I I I I 5+6+I B B B B B B I I B =.~.~.#.: A A : : : , ! | 7+8+I I h B B >.9+(+k #.-.4+^+N h N L ;.*.R R I I R : : ",
"R < k u B =.1+: R I I 0+I I B B B B I I : I B #.~.^+#.: : : - , ) ! ^ <.0+I : I I h >.1+_+:+- c :.#.B *.a+> > - u u u u u u r ' ",
"< k u R ;.B : : I R 6+6+I B I B I R I I 1+R =.l.~.-.B : u v ! ) ) ' A b+c+_+I I 1+: : : : 9+d+..:.*+#.- r u c c : c r ' [ [ | | ",
"c u < =.=.*.< - : I :+e+B B I I R R : I I I #.~.~.;.h u ' { { f+k : I g+h+O.:+J J i+i+6+j+k+l+i !.n.- [ r u - B B : v [ w | '.'.",
"u - =.=.*.R < - > < m+B R R R R R R : : R {.-.~.n+; < l { { k _ : B o+o+{.B e+J J p+i+o.q+r+s+z !.l r r c < R *.=.R | | ] j ~ j ",
"u B =.*.< < < < < < 9+(+: R R I R R : =.#.#.M > u c < c { f+_ A B B O.t+B B B B h : , i ..u+v+' z @.c u < R B =.S *.| Y | ~ ~ ~ ",
"B *.R < c c u u c R n K.: R B I I I S ;.*.u s < : h : ; ' l A A B e+O.B B B 1+: z ) | Z ` w+w+( @.+.< R =.(.(.=.*.u m m | | '.'.",
"< - c c c c u c c c *.< x+y+< : : - u t z+G.*.;.B B #.S _ _ A B B J J B >.l z { i m ..` A+d.u+m k R B =.(.(.(.B < 1 ] '.^ | '.| ",
"B+c c c c u u u u c B+R < C+D+E+E+F+G+H+:+J ;.N S #.;.I l l I B B I+J : <.{ { ^ ] m `.`.` J+K+m u B B =.=.=.=.B h.m '.| ~ ~ ^ ^ ",
"< c c u c u u u u c c < c c u L+2+M+t+(.=.#.;.M #.#.=.: A : 1+B B 2 u ) { i | | m ..Y Z ..N+O+m , R B =.=.{.B B P ..m ^ ~ ~ ^ ! ",
"c c c c u u c c - - < < h N M n+S =.=.(.S S S -.#.#.I : - : : l u ) ! ) ^ | m `...Y Y Y ( ( ( | ' < B (.(.(.{.R m ] ] | ^ ! ) ) ",
"< < : : : : R R : : R ;.-.n+N S ;.;.#.#.e.B B #.#.#.: < : _ l ' ) ) ) ^ | ....( Y ( ( ] ] ] ( | ' : B (.(.(.(.< | | ^ ^ ^ ! ) P+",
"*.R R : : : R : : B -.M *.*.;.;.#.;.;.#.S h B #.#.=.: : l z ) ) ) i | ( Y Y ( ( ( ( ^ ^ y | | i u l {.(.(.(.=.u ^ ^ ~ ) ) i [+Q+",
"*.R R R R I B B R S L *.*.B N S N ;.#.;.h : R ;.#.B : u , ' ) ) i | ( Y ( ( ] ] ( | ^ ^ ^ ^ ^ ' , l B (.(.(.I ' ^ / ) ) ) ) R+S+",
"*.*.B B =.S S T+*.; N N =.B =.S ;.;.#.N ; h N -.N : l { ' { ) w m m ( ( ] ] ] ] ] ^ ^ ^ x x j ' { c I !.#.(.: ' ) ) ) ) ) ) ) U+",
"S ;.#.#.#.M T+> - h S S S N S S ;.#.;.N S M S h < - k { { H m m ( ] ] ] ] ] ] ^ ^ ) x j ) ) x { <.z : !.!.{.< ' ) ) ) ) ) ) ) V+",
"#.#.#.-.M W+< < h R S ;.S N S S ;.#.#.;.X+-.- : - - z s P ..( ] ] ] ] ] ] j j { { { ) ) x { x { z z : !.!.{.: ' ) ) ) ) ) ) ) Y+",
"Z+-.-.L W+h : h h B ;.;.N S S S ;.#.#.X+>+S : : : - H ( ( ] | ^ ] ^ y ^ ^ j ) { { { { { { ) { <.z z l !.`+B - ' ) ) ) { { ) )  @",
".@n+N +@h h h B B B ;.S S S #.#.#.#.~.].].;.h : , P ] ] y y x i x x ' ' { { { { { { { { { { { z z @@#@$@%@&@*@' ) ) ) ' { ' H =@",
"-@;@>@,@'@)@!@~@>@{@;.;.S S ;.#.#.-.].].X+;.= P w x ) { { { <.<.A ]@]@^@/@(@_@:@<@<., { f+{ f+[@}@|@1@2@3@4@5@' ' { ' 6@7@8@9@0@"};
