/* XPM */
static char *c80b436e23334f40b9c23b612b8fd2abRwJ6McHUejlJSLoR[] = {
/* columns rows colors chars-per-pixel */
"64 64 129 2 ",
"   c #BB0E56",
".  c #BD0D59",
"X  c #BC145A",
"o  c #B41959",
"O  c #BC195D",
"+  c #B5215C",
"@  c #BA225F",
"#  c #BF2262",
"$  c #C20655",
"%  c #C20957",
"&  c #C40C59",
"*  c #C90E5C",
"=  c #C5145D",
"-  c #CA135E",
";  c #C7185F",
":  c #CB195F",
">  c #CB0F60",
",  c #D00F61",
"<  c #CC1561",
"1  c #C51C62",
"2  c #CB1D64",
"3  c #CF1D68",
"4  c #D11663",
"5  c #D11C65",
"6  c #D21E68",
"7  c #DA1F6C",
"8  c #C62364",
"9  c #CC2266",
"0  c #C72867",
"q  c #C82866",
"w  c #CE2369",
"e  c #C7296A",
"r  c #CD2B6C",
"t  c #D22266",
"y  c #D4246C",
"u  c #D9266E",
"i  c #D42A6D",
"p  c #D92A6E",
"a  c #D4316F",
"s  c #DA306F",
"d  c #D72670",
"f  c #DA2670",
"g  c #D52C71",
"h  c #DB2C73",
"j  c #DD2C7A",
"k  c #D53273",
"l  c #DD3275",
"z  c #D53A76",
"x  c #DC3876",
"c  c #DE3379",
"v  c #DC3B7B",
"b  c #E4236F",
"n  c #E32771",
"m  c #E32D73",
"M  c #E82E76",
"N  c #E12F7A",
"B  c #E23476",
"V  c #E83176",
"C  c #E23877",
"Z  c #E3347B",
"A  c #EB357C",
"S  c #E43A7C",
"D  c #EA3C7E",
"F  c #F0367E",
"G  c #F1387F",
"H  c #E5407E",
"J  c #EA407F",
"K  c #E53581",
"L  c #E93780",
"P  c #E63B81",
"I  c #EC3D83",
"U  c #EB3E84",
"Y  c #EB3F86",
"T  c #EE3E85",
"R  c #EF3F88",
"E  c #F23D83",
"W  c #F03E86",
"Q  c #F03F88",
"!  c #F13F88",
"~  c #E24080",
"^  c #E54180",
"/  c #E64585",
"(  c #E94083",
")  c #EE4083",
"_  c #ED4284",
"`  c #EC4286",
"'  c #E84485",
"]  c #EA4585",
"[  c #E94685",
"{  c #EC4986",
"}  c #EF4288",
"|  c #EE4488",
" . c #EF4489",
".. c #EF448A",
"X. c #EA4889",
"o. c #EE4989",
"O. c #EC4B89",
"+. c #ED488B",
"@. c #F14386",
"#. c #F04887",
"$. c #F1408A",
"%. c #F44389",
"&. c #F04489",
"*. c #F34488",
"=. c #F3458A",
"-. c #F2468B",
";. c #F3438C",
":. c #F4448C",
">. c #F4458C",
",. c #F4468D",
"<. c #F6478E",
"1. c #F6478F",
"2. c #F8478F",
"3. c #F2488A",
"4. c #F1498D",
"5. c #F3488D",
"6. c #F24A8F",
"7. c #F5498D",
"8. c #F8498F",
"9. c #F1508E",
"0. c #F64A90",
"q. c #F74A91",
"w. c #F64C91",
"e. c #F94C92",
"r. c #F65193",
"t. c #F95195",
"y. c #F75798",
"u. c #F95699",
"i. c #FA5A9C",
/* pixels */
"c l l l C C C c x v v c k x v P U T _ @.T I I I I T >.>.$.W @.>.>.q.$.N h l q.>.@._ _ ) I @.%.&.&.3.&.%.>.$.P h g h l B B B h l ",
"S C C S D S c l k z v g l c c P U T } _ T I I U I T $.$.$.Q $.>.q.q.&.Z h _ P B B B I T I _ &.$.@._ 5.>.>._ h h h h l B B c h l ",
"D D ^ ] S l l x v v c x C c B S ( _ | _ T I I U T _ &.T R } ;.>.>.q.&.P A j y l B A A A A A A I I I &.>.&.c l l h h l h h h h g ",
"J D S ] ] ] / S x x S D S x ~ X.5.&.5.| U U I I U } &.} T I I I T I R A u u h c P A A A Z B A I I $.$.5.P h h h h h h h h g y w ",
"D S x P k e e 8 r g g r r z X.&.@._ _ | U U U U } $.$.&.&.&.| } _ | o.5.7 Z A Z c P A A A I U T Q $.T k g y y p g g u g g w 2 2 ",
"r 8 # o @ 8 r k l k k l S _ _ @.R T U } T I T } $.$.>.>.q.e.t.t.u.i.i.w.m V A h y ^ U U U I I T $.W j 2 w y u u g g p y 2 2 2 9 ",
"o o + 0 i l c c l l C ( _ _ T T I U U _ _ | 5.5.5.w.q.e.e.t.t.t.u.i.i.&.N B C y t | _ _ _ T _ @.$.Z w 1 9 u g d h g y 2 1 2 2 9 ",
"o # i g l C c l c S _ _ @._ T T T _ 5.w.q.e.e.e.q.q.q.q.e.e.t.e.u.i.u.I h u w h C _ I ) ) _ &.| U y 1 2 9 g g h h p w 1 2 2 2 9 ",
"r g l C Z C S D U _ &.&.@.@.&.=.>.5.e.q.8.q.q.e.q.q.q.e.e.e.e.e.e.t.w.h < = 2 l d h B S U U _ P i 2 2 2 w h h h h i r 2 2 2 9 w ",
"l C S S S U _ | | &.@.&.&.=.&.>.5.8.e.e.e.q.q.e.5.q.q.e.e.e.e.e.e.t._ 6 2 2 2 g h c h h h c c i 2 2 2 9 r c h h g r r 2 1 1 2 r ",
"S S P ( ) ) | 3.&.&.&.>.=.%.=.>.>.8.8.q.e.e.e.e.>.8.e.e.t.t.e.e.t.5.h < 2 2 t p l B B B Z C g 2 X 1 1 1 g g u y p y r 1 1 1 9 y ",
"^ ( ) _ _ &.5.5.&.&.&.>.=.%.=.=.8.8.q.q.e.e.t.e.2.8.q.e.t.e.e.e.5.U p 2 t 5 6 u h B A A I c w 1 1 1 9 9 y y y y h g r 1 1 9 i l ",
"U ( _ _ &.3.5.w.=.=.>.>.>.>.=.=.5.8.q.e.e.e.t.e.>.>.q.e.e.e.t.>.I Z u 4 y t t y h Z A K S u 9 1 1 1 9 r i i g l Z r 1 1 i c S l ",
"_ | | &.&.5.5.5.5.>.=.=.=.=.=.&.5.8.e.t.t.e.e.q.>.q.e.e.e.>.T A A A S , 4 t y y u c A P h y 1 1 2 9 9 i i p p B h 1 r g l A x h ",
"| &.&.&.&.&.>.5.>.5.=.=.=.=.=.=.>.q.t.e.e.q.8.q.5.>.5.&._ I A A A _ U 4 4 4 < i p l P C i i 2 2 9 9 r i i p i l g g l g l C h i ",
"@.&.&.&.&.>.>.>.>.5.5.5.5.=.=.>.5.e.e.e.e.5.>.>.=.$._ U A A A A I _ | u 4 4 * 4 t l P h r q 8 9 w y y p p h l c S h l l c c g i ",
"&.&.&.&.=.>.5.5.5.=.5.5.5.5.&.5.8.q.t.w.>.$.@.W I I I S I A A U _ w.w.l 6 5 5 5 5 5 g k w r r i i h h h h l l Z ^ S c l C C S D ",
"&.&.&.&.5.5.>.5.5.5.5.>.>.5.5.5.5.8.5.o.&.T T I A A U D ) _ &.5.e.t.&.h 3 < < 2 9 = 2 l l c c x x c c c c S H o.{ / / / o.o.3.@.",
"&.&.&.&.>.>.5.5.5.5.5.=.&.5.5.5.5.5.5.3.o.( I I _ 5.| | &.&.>.5.e.w.D t - : 2 2 1 & y l c C C C S S S ( ( ) 5.e.@.5.V I E E %.E ",
"o.#.&.&.>.=.>.5.5.5.>.=.5.8.e.w.5.o.o.( U _ | 5.w.w.3.3.5.5.5.5.w.w.C 5 2 5 t 2 & 2 p l C C C C S D D ( ( &.8.q.>.=.A A F F Q Q ",
"&.3.&.#.5.=.>.5.>.5.5.5.5.5.&.I S S I S A 3.w.5.8.w.5.5.5.5.5.e.e.w.l 6 5 5 5 & & 2 h C C C C S D J J ( | 5.8.q.q.e.&.D A A E Q ",
"&.&.&.&.5.5.=.=.>.5.5.>._ U Z Z Z S S ( 5.5.5.>.>.5.=.&.&.>.5.>.>.>.l t 6 5 - % - 5 h B l C S D J J ( _ 5.5.5.8.q.8.5.5.W E E Q ",
"&.&.&.&.>.>.=.=.5.>.&.D S S S S A S _ 5.5.=.=.&.=.>.&.&.&.3.&.=.&.$.B y 5 - & & 2 t h l C C S D D D _ &.&.=.>.>.8.8.3.U &.&.&.&.",
"&.@.&.@.3.5.5.&.&.&.D A S S S S D | &.&.&.&.&.&.=.=.&.@.&.&.&.5.>.&.C t : * % * 2 t l C C S S D D _ =.&.%.&.&.&.8.5.&.S _ &.>.&.",
"_ _ _ &.&.5.| ) I I D D D S D D | &.&.&.=.=.$.$.$.=.&.T _ @.>.>.>.&.c w : % % - 2 y l C S S S D _ =.=.%.%.=.=.%.=.5.&.A Z | &.o.",
"( ( I I _ | | | _ _ ] ] ( ( o.3.@.@.&.>.>.&.$.&.=.=.&._ @.$.>.>.5._ l 2 - % & 5 5 u l C S S D | =.=.=.=.%.%.%.@.@.&.&.( S ] r.u.",
") ) ) U ) ) ) ) ) _ ) _ o.5.3.&.&.&.&.&.&.$.$.&.$.&.@._ @.$.>.>.>.&.h 5 - % - < 5 p C C S D &.&.=.=.=.=.&.@.@.@._ | | S ( 5.w.u.",
"| _ _ | ) &.&.| &.&.3.3.5.o.| &.&.&.&.@.&.@.@.$.$.$._ _ @.$.>.5.&.&.h 5 - % < 2 y l C C S &.&.&.&.&.&.&.&.@.) I I ) ( 9.5.=._ w.",
"&.&.&.&.@.@.&.@.@.@.&.=.| &._ @.&.&.3.>.5.&.&.&.>.&.&.@.&.&.w.t.e.5.p 5 - - - 2 p B C C D &.&.&.&.&.&.&.@.) I U I | r.5.&._ D 5.",
"_ &.@.@.@.@.@.@.@.@.=.&._ _ @.&.&.&.=.=.8.5.=.5.5.r.r.5.5.5.w.w.e.&.u - - 2 * 9 C S A D D J ) ) ) _ _ | ) I D | 5.e.8.&.&.h } $.",
"A ) @.&.&.%.=.&.#.7.&.&._ _ @.@.@.&.=.=.5.5.&.>.>.>.5.>.=.5.w.5.5._ 5 - 5 : = p S J D D D D ) | | _ _ ) D ) 9.w.q.8.>.&.c y _ &.",
"V A E @.=.=.&.&.3.3.&.@.@.@.@.@.@.@.@.=.5.5.>.>.5.>.5.=.=.=.5.5.w.| y - = = 9 S H ( D D D D D J ) &.&.| 3.5.e.q.5.5.@.l - S $.>.",
"m m A E @.&.&.7.5.&.@.@.&.@.@.@.@.&.@.&.>.5.5.=.5.8.5.>.=.=.5.8.e.] 5 & % : l C C ( ( D D D A ) _ | &.>.5.2.8.8.5.&.l - y I $.&.",
"m n m A I @.3.3.=.&.) @.@.@.@.@.@.@.@.@.&.5.5.>.=.>.5.5.=.>.5.=.>.l 2 $ & i S p B D ) J D D D J ) &.>.>.=.>.5.>._ S < 2 D _ $.$.",
"V V n m A &.#.&.@.@.@.) @.@.@.@.@.@.@.@.@.5.5.8.=.>.8.5.5.5.&.&._ 5 2 $ t C C p B D ) J ( J J ( #.>.>.=.=.>.>.| c 2 2 h I _ @.$.",
"A A M b n I I @.@.@.@.E E G E @.@.@.E E @.@.5.8.5.8.8.5.5.5.&.&.A < - t B C C u p D ( D J ( ) | >.=.=.=.&.>.#.( 6 = 2 ( @.@.&.&.",
"D D D A D ) A V A E E E G G F F F E E E W @.&.5.5.2.8.5.5.&.&.) h & 9 C C V C u p A ) D ) _ o.#.&.&.=.=.&.&.| g = = l | _ _ T I ",
"I D D ] o.D &.E A F F F F F G F A A F G E @.@.3.8.>.8.&.&._ ) ) y 2 l V C V B u B C D ) _ o.#.&.@.&.@.=.&.| C = % 2 A U U U U _ ",
"I D C o.#.D @.E E E E E G E E E E E E E @.&.&.&.2.5.5._ U S S l u u Z V V m m p C B S ] ( ) 3.&.&.&.@.&.&.C 2 % - h A U U _ | | ",
"D D B o.@.&.@.@.@.&.@.@.@.@.@.@.) @.&.@.&.&.&.| _ P h u 2 y u p h A Z m m m p p B C J J _ &.&.@.@.@.%.&.S p   = t C D U _ o.( U ",
"J J S A I &.&.@.@.&.) ) ) | | | _ | _ ) U U S S k p 6 2 9 h h h h Z Z Z B p u l C S A D ) @.@.@.@.@.&.S p 9 X 2 h S D o.o._ _ _ ",
"D S | ) V | &.@.) ) D D D A S D A S B B B C h u 2 9 y y p A B B B B Z Z A B p ] C m m A D &.@.@.@._ P h r X ; y S D o.o.| _ _ _ ",
"D { &.) D Z _ _ S B B C B B B h h h h u u u y t 2 w i y l B N N B B Z P S _ ] U D Z A M V @.@.@._ c u < 1   9 S ] o.] | | _ S S ",
"H ] D l l C Z C h h h h h h h h u f u u u u u t 9 1 2 y N h h j h h l P 5.] k c h h B A Z A _ D u < . & g 9 l ~ ~ v c c h h g h ",
"l p c S C h f u u u u f u u y y y y y y u u y t = = 2 h j j h h h P _ &.U g u u g y y d h h Z 2 1 . ; r g r e 9 i p p u u p h h ",
"p l Z S y t f h p u u u u u y y y y u u h u y 2 = ; 2 h h h c P T _ $.K u u h u u g d f u u c C 4 2 y i a x x c S S S S S S D U ",
"l Z S p 9 y h h u p u u u y u y u p u u f p t - = 1 y h S ( _ T T U j f u u u u f h h h h h r.w.4 $ 2 c D S C C h C D U ) ) &.&.",
"C S l t t i l c h u p y y y u u p p h u u u 2 = = 9 g S U I I L Z h u u y y u y y u u u h w.i.} < & c ) D S c y y h ( ) | &.=.=.",
"S c t t i p l c x l p y p p p p p p h h p 6 1 = q k l B I I Z N h y 6 6 6 y y y y t u c &.i.u.A < B D D C l p i t p &.&.>.Q @.Q ",
"S y t i l l l l l l h h h p p u p p h t 2 2 8 x S C l C I L N j y y y t y y y y g h P } w.u.y.U A V C S l p y t w i &.e.&.@.@.@.",
"y i p l C C S S C p l l h p y u u u w 9 i S ^ l h g h k U B j j y y y y y y f h A T &.t.u.i.i.q.V m l p t 5 5 t i S 5.5.&.&.=.=.",
"l c C C C C S C C C i l x c l h h c S ] ] S i 9 y y 2 w N N j y y y y y d B A I } 5.w.u.y.t.u.5.Z p y t 5 5 5 y l 3.>.=.$.&.=.&.",
"s C C C C S S S S C s p l H S D D ( H l p y 9 r w 2 9 u B B u y y t y h K I I $.>.5.r.r.u.t.w.5.S y y t t t t y { 5.=.&.@.@.$.$.",
"l C C S C S S S S C C l C C S c k g t 5 t 2 9 8 2 2 t h j h f y y h S T I } &.&.5.w.e.t.w.q.q.5.P p y t t 6 y y o.w.5.$.@.@.$._ ",
"C C C C S S C C c c l l g r 8 q w t t 5 w w w 1 2 2 u h c h h B S T _ T $.&.5.r.w.e.e.e.q.q.q.&.U l y 5 5 5 6 p 5.>.>.&.$._ T T ",
"l l h h h h p p h h p 9 1 q r w 9 9 2 2 3 y y 2 2 2 h l h N B U T T T $.&.w.w.q.e.q.q.>.>.>.q.&.U h y 5 5 5 5 l &.&.$.$.$._ T T ",
"i p p h h h p h h y 1 8 i i 9 9 2 9 9 2 w g y 2 2 t h h B A T T T } &.q.e.e.q.q.q.q.$.$.;.&.&.} S B 6 5 5 5 t S $.$.@.T T } _ _ ",
"i p p p p u y y p w e i i y r w r 9 2 9 g h p 9 2 y h S P U T T } &.q.e.q.q.>.>.q.&.$.$.$.$.$.U P B y 5 5 5 u U $.W T T T T } _ ",
"i i y y t w w w i k r r t y t w 9 9 2 r k g r 1 r h B I U I T | 5.5.q.q.>.>.>.>.>.$.$.$.R R Q U I C u < 2 5 h U T T T T T T T T ",
"w 9 2 2 2 8 r x c g w w w r w w 9 2 9 r w 8 w g l c Z I I X.5.5.q.>.>.>.>.>.>.$.$.T R Q T T R I K A h < < 6 l U T T T T T T T T ",
"2 2 2 1 8 i l l g p w 9 w r w w 9 2 2 9 O 1 c h c c A ^ o.w.q.>.>.>.>.>.>.Q Q I I I T T R I R I A A h < < 6 h U T T T T T T T T ",
"1 1 1 e g g h g g y 9 9 r w w w 9 2 2 O   w h h h c X.q.q.>.&.$.>.$.;.$.$.Q T I I I I I I T I K A A B < > y c U T T T I I T T U ",
"2 q r p g g g y y y 9 w w w 2 2 2 2 = X X 9 g h P o.>.>.;.;.R } R R U U I I I I I I I I I I I A A A Z 6 > u c U T T T U I U X.o.",
"r i p g p i g y y w 9 9 w w 9 2 2 1 X X O 9 v o.| R T I I I K K j j j j j j j N K K P I L I L A A A Z 3 3 h c U U I U _ ] o.| T "
};
