/* XPM */
static char *_3435e38a15e4e858f8aefe468f08710q9cOXcdTkiVr9DoA[] = {
/* columns rows colors chars-per-pixel */
"64 64 184 2 ",
"   c #604B47",
".  c #634E4A",
"X  c #66514D",
"o  c #6A524F",
"O  c #6C5451",
"+  c #725754",
"@  c #755955",
"#  c #7A5C57",
"$  c #745A59",
"%  c #7C5D5B",
"&  c #7F605E",
"*  c #7F6060",
"=  c #805F5C",
"-  c #8B5E59",
";  c #83615D",
":  c #89645F",
">  c #856362",
",  c #8B6663",
"<  c #8E6865",
"1  c #8E6969",
"2  c #916762",
"3  c #936A66",
"4  c #996D67",
"5  c #956C6A",
"6  c #996F6B",
"7  c #9D716D",
"8  c #826E78",
"9  c #996F71",
"0  c #87717D",
"q  c #9D7272",
"w  c #A3746E",
"e  c #A47572",
"r  c #A97772",
"t  c #A77876",
"y  c #AC7974",
"u  c #A2767A",
"i  c #A5797C",
"p  c #AC7B79",
"a  c #B27D76",
"s  c #B87F77",
"d  c #B37E7A",
"f  c #B6807C",
"g  c #BA827C",
"h  c #C2867E",
"j  c #8C7480",
"k  c #977A87",
"l  c #A87C83",
"z  c #B07E80",
"x  c #9E8C8D",
"c  c #A68483",
"v  c #A0818D",
"b  c #BD8581",
"n  c #BA8686",
"m  c #BC8987",
"M  c #BB878B",
"N  c #A48493",
"B  c #AC8998",
"V  c #B08D9E",
"C  c #B692A1",
"Z  c #BB96A6",
"A  c #C18682",
"S  c #C58985",
"D  c #CA8C87",
"F  c #C58B8A",
"G  c #CB8D89",
"H  c #CE908C",
"J  c #D2928D",
"K  c #C69295",
"L  c #CB9294",
"P  c #CA929A",
"I  c #CA9498",
"U  c #D39594",
"Y  c #D69B9C",
"T  c #DA9B9B",
"R  c #C79EAD",
"E  c #D69CA3",
"W  c #DB9EA6",
"Q  c #DC9FA9",
"!  c #CB9FB0",
"~  c #C9A3AC",
"^  c #DEA1A6",
"/  c #D4A6AD",
"(  c #DEA3AB",
")  c #DCAAA9",
"_  c #CDA3B1",
"`  c #D0A5B4",
"'  c #D3A9B7",
"]  c #D7ADB7",
"[  c #D9AABF",
"{  c #DBB4BC",
"}  c #E3A6AD",
"|  c #E2A9AF",
" . c #E1A7B1",
".. c #E5ABB3",
"X. c #EAAEB5",
"o. c #E5B3B6",
"O. c #EBB1B7",
"+. c #E4B9B7",
"@. c #EBB4BA",
"#. c #E4BBBA",
"$. c #EDB9BE",
"%. c #F0B2B7",
"&. c #F3B6BC",
"*. c #F4B9BF",
"=. c #F8BABC",
"-. c #DCACC1",
";. c #DFB4C3",
":. c #D9BEC6",
">. c #E1AFC3",
",. c #E4B3C6",
"<. c #E9B5C6",
"1. c #E3BCC4",
"2. c #EDBBC5",
"3. c #E6B6C8",
"4. c #EAB6C9",
"5. c #EDBACA",
"6. c #F5BBC3",
"7. c #F9BEC3",
"8. c #F2BDCC",
"9. c #D5C2C2",
"0. c #E5C1C7",
"q. c #ECC4C6",
"w. c #E7C9C7",
"e. c #E6C4C9",
"r. c #EDC6CA",
"t. c #EDCDCD",
"y. c #F2C1C5",
"u. c #FBC1C6",
"i. c #FCCAC6",
"p. c #F5C3CC",
"a. c #FBC4CA",
"s. c #F4CACC",
"d. c #FCCBCD",
"f. c #FCD2CD",
"g. c #FCD8CF",
"h. c #E6CDD1",
"j. c #EBCED1",
"k. c #F5C4D1",
"l. c #F9C6D2",
"z. c #F7C9D3",
"x. c #FBCCD3",
"c. c #FCCFD8",
"v. c #EDD4D4",
"b. c #EADAD9",
"n. c #F3D3D4",
"m. c #FCD3D5",
"M. c #FDDAD5",
"N. c #FCD4D9",
"B. c #FCD5DA",
"V. c #FDD6DA",
"C. c #F5DCDB",
"Z. c #FCDBDB",
"A. c #FDD9DC",
"S. c #FCE0D7",
"D. c #F7E0DE",
"F. c #FCE2DD",
"G. c #FBC8E4",
"H. c #FDDBE0",
"J. c #FCDFE2",
"K. c #F7E4E3",
"L. c #FCE4E2",
"P. c #FDE1E4",
"I. c #FCE3E6",
"U. c #FCE4E7",
"Y. c #F7E8E7",
"T. c #FCE9E5",
"R. c #FCE7E8",
"E. c #F3EBEA",
"W. c #FCE8E9",
"Q. c #FCEBEB",
"!. c #FBECEB",
"~. c #FCEDED",
"^. c #FCEFEE",
"/. c #FBF0ED",
"(. c #FDF1EF",
"). c #FDF2F0",
"_. c #FAF4F3",
"`. c #FDF6F3",
"'. c #FDF7F4",
"]. c #FBFAF6",
"[. c #FCF9F6",
"{. c #FCFAF7",
"}. c #FDFCFA",
"|. c #FDFDFD",
/* pixels */
"8.8.8.8.p.l.x.x.m.V.A.H.J.P.U.~.).'.{.|.|.|.|.|.|.|.|.|.|.|.|.|.|.|.|.|.|.|.|.|.}.{.'.).~.U.P.J.J.H.H.H.A.A.V.V.c.x.x.x.l.l.p.p.",
"8.8.8.a.x.x.V.V.A.J.P.P.R.W.(.`.{.}.|.|.|.|.|.|.|.|.|.|.|.|.|.|.|.|.|.|.|.|.|.}.'.`.).(.~.~.W.W.R.R.P.J.A.A.V.c.c.x.x.l.l.p.p.p.",
"p.p.l.x.x.V.V.A.A.J.P.P.R.W.~.).`.{.}.|.|.|.|.|.|.|.|.|.|.|.|.|.|.|.|.|.|.|.|.}.'.(.~.W.R.P.P.U.R.U.U.P.P.J.J.A.V.V.x.l.l.p.k.p.",
"a.x.x.x.x.V.V.V.V.V.A.J.P.U.W.~.).`.{.}.|.|.|.|.|.|.|.|.|.|.|.|.|.|.|.|.|.}.}.'.).~.~.W.R.U.P.P.P.P.P.P.P.J.J.A.A.V.V.m.x.x.x.x.",
"p.l.l.x.x.m.V.V.V.V.V.A.A.P.U.W.~.).`.{.}.|.|.|.|.|.|.|.|.|.|.|.|.|.|.|.|.}.{.'.`.(.(.~.W.R.R.P.P.P.P.P.P.P.J.J.H.A.V.V.V.m.x.l.",
"8.8.8.p.l.l.x.x.m.m.V.A.A.J.P.U.W.~.(.`.{.|.|.|.|.|.|.|.|.|.|.|.|.|.|.|.}.{.{.`.`.).(.~.W.R.U.P.P.P.J.Z.J.A.A.A.A.V.V.x.x.l.l.p.",
"8.8.8.p.p.l.x.x.V.V.A.A.J.J.P.P.U.W.~.).`.{.}.|.|.|.|.|.|.|.|.|.|.|.|.}.{.'.`.(.~.W.R.P.J.J.A.A.A.V.A.V.V.m.V.m.m.x.x.x.l.l.l.p.",
"p.a.x.x.x.m.V.V.V.V.V.V.A.A.J.J.U.W.W.~.).`.{.{.}.|.|.|.|.|.|.|.|.}.}.{.'.).~.W.R.U.P.J.A.V.V.V.V.m.c.x.x.x.x.x.x.x.x.x.x.x.a.p.",
"p.p.a.x.x.x.x.x.x.x.x.m.V.V.V.A.J.J.P.U.R.W.).`.{.}.}.}.}.}.{.{.'.`.).~.W.W.R.U.P.J.A.A.V.m.m.x.x.x.x.x.l.l.l.l.l.k.k.p.p.p.8.2.",
"8.8.8.8.p.p.a.x.x.m.V.V.V.V.A.A.J.J.P.P.R.W.~.).`.`.`.`.'.`.`.(.~.!.R.P.J.H.A.m.m.x.x.x.x.l.l.k.k.8.8.5.5.5.4.4.4.4.4.<.4.5.2.2.",
"8.p.p.p.a.l.l.x.x.x.x.x.m.V.V.A.A.J.P.U.R.W.W.W.~.~.~.~.~.W.R.P.P.J.H.A.A.V.x.x.l.k.k.8.5.5.4.4.4.4.4.<.<.3.3.3.,.,.<.,.3.3.<.<.",
"p.p.p.p.a.a.x.x.m.V.V.V.V.V.A.A.A.A.J.A.H.J.H.H.J.J.J.J.P.J.A.A.V.m.m.x.l.k.k.8.8.8.5.5.5.4.4.4.4.4.3.3.,.,.>.-.-.-.-.-.-.-.[ -.",
"p.a.a.x.x.x.m.V.V.V.V.V.V.V.m.m.x.x.x.x.c.c.m.m.V.m.m.m.V.c.c.x.x.z.z.l.k.k.k.8.8.8.5.5.4.3.3.,.,.,.-.-.-.-.-.-.[ -.[ [ [ [ [ [ ",
"a.a.d.x.x.x.x.x.x.x.x.l.l.p.p.p.p.k.k.l.l.l.l.x.x.z.z.z.z.z.l.l.k.l.l.l.l.k.8.8.5.5.5.4.3.,.,.,.,.;.-.-.-.-.-.-.-.-.-.-.-.-.-.-.",
"a.a.a.d.d.d.a.a.p.p.p.p.8.8.8.8.8.8.8.8.k.k.k.k.l.l.l.l.z.l.l.l.k.k.l.k.k.k.k.8.8.8.5.5.5.4.4.4.4.4.4.4.4.4.4.4.3.,.,.,.,.,.>.>.",
"6.8.8.8.8.p.p.8.8.8.8.8.8.8.8.8.8.8.8.8.8.8.k.k.l.z.x.x.x.x.x.x.x.x.x.x.x.l.l.k.k.8.5.5.5.5.4.4.4.3.4.4.4.3.3.3.3.<.<.<.<.5.2.2.",
"6.2.6.6.8.8.2.2.2.5.8.8.8.8.8.8.8.8.k.k.l.l.x.x.x.x.V.c.m.c.x.x.x.z.k.k.l.l.l.z.l.x.l.z.p.p.p.5.8.8.p.p.l.l.l.x.x.x.a.p.p.8.5.5.",
"6.6.6.6.8.8.p.p.a.a.a.p.p.p.x.x.x.x.x.m.V.m.V.V.V.V.V.V.V.V.V.m.V.m.m.m.m.V.V.V.V.V.V.V.V.A.A.V.V.V.m.x.x.x.p.p.p.8.8.5.2.2.5.8.",
"6.6.6.8.a.a.d.d.x.x.x.x.m.m.m.m.V.V.V.A.A.A.Z.P.P.P.U.U.U.T.U.U.U.U.T.U.U.U.T.P.K.Z.A.A.A.V.V.V.m.V.V.V.V.V.V.m.x.x.x.d.a.p.p.a.",
"a.a.a.a.d.x.x.x.x.x.x.m.m.m.V.Z.P.L.T.T.T.T.!.!.!./.(.(.!.!.!.T.L.P.Z.J.P.P.K.P.K.K.K.K.J.F.Z.Z.Z.Z.A.V.V.m.m.x.a.p.p.8.8.8.p.p.",
"x.x.x.x.x.x.m.V.V.A.Z.Z.F.F.F.L.L.L.T.T.T.T.T.U.T.L.L.L.P.L.L.P.P.L.T.T.T.T.L.P.P.Z.A.V.V.x.x.x.d.x.x.x.x.x.x.x.x.d.x.x.x.x.x.x.",
"d.x.x.x.x.x.x.x.m.m.m.V.A.Z.Z.Z.F.P.L.L.L.L.L.L.T.T.T.T.T.T.U.L.P.Z.Z.A.A.V.V.V.V.A.V.V.V.V.V.A.Z.V.V.m.m.m.m.m.V.V.V.m.x.x.x.x.",
"m.m.m.d.x.x.x.x.m.V.A.A.A.A.Z.Z.Z.Z.Z.F.F.F.F.F.Z.Z.Z.Z.A.A.A.A.A.A.A.A.A.A.A.A.A.A.A.A.A.A.M.A.V.V.A.A.A.A.Z.Z.A.V.m.m.m.x.x.x.",
"d.d.m.x.x.m.m.m.m.m.m.V.V.A.A.A.A.A.A.Z.A.A.V.A.A.Z.Z.F.P.L.L.L.L.L.P.F.Z.Z.Z.A.A.A.A.A.A.A.A.Z.Z.Z.Z.A.A.V.m.m.m.m.m.m.m.m.m.m.",
"d.d.m.m.m.m.m.m.V.V.V.V.V.V.V.m.m.V.V.V.A.A.A.A.A.A.A.A.A.A.A.A.A.A.A.A.A.Z.Z.Z.Z.Z.Z.Z.F.F.F.F.Z.Z.M.V.V.V.V.m.m.m.m.m.x.x.x.x.",
"d.d.d.d.d.d.d.d.x.x.m.x.m.m.m.x.x.x.x.x.m.V.V.A.A.A.A.Z.Z.Z.Z.Z.Z.Z.Z.Z.A.A.A.Z.F.F.F.F.Z.A.A.V.V.V.m.m.m.m.m.x.x.x.x.x.x.x.x.d.",
"d.f.f.f.f.m.m.f.d.m.m.m.m.V.M.M.V.V.V.V.V.m.m.V.V.A.A.Z.F.F.F.L.L.L.L.L.L.L.F.F.Z.A.V.V.V.M.V.V.V.M.M.M.M.V.V.V.m.m.x.d.d.a.a.a.",
"i.d.d.f.f.g.m.M.M.M.m.m.m.M.M.M.M.F.F.F.F.F.F.F.F.F.F.F.F.F.F.F.F.F.F.F.F.F.F.Z.Z.Z.Z.Z.Z.M.M.M.M.V.m.x.d.d.d.p.p.p.p.a.a.d.d.d.",
"i.i.i.i.d.f.f.f.g.g.g.g.g.M.M.M.M.M.M.m.M.M.M.Z.Z.F.F.F.F.F.F.F.F.F.F.F.S.M.Z.M.M.V.V.m.m.m.m.x.x.x.d.d.a.d.d.a.a.d.a.a.a.a.a.u.",
"u.u.u.i.i.i.d.d.d.d.d.d.d.d.f.g.g.g.M.M.M.M.S.S.S.M.Z.S.Z.M.M.V.V.M.V.V.V.m.V.M.M.M.M.m.m.m.m.m.x.d.x.x.d.d.d.d.d.d.a.a.u.u.u.u.",
"=.u.u.u.u.i.i.i.a.a.d.d.i.d.d.d.d.d.d.f.f.f.f.m.m.m.M.M.M.M.M.M.M.M.M.M.m.m.m.m.m.m.m.m.m.m.x.x.x.d.d.d.d.d.d.i.a.a.a.a.a.a.u.a.",
"=.=.=.7.7.u.u.u.u.i.i.i.i.i.i.d.d.d.d.d.d.d.d.d.d.d.f.m.m.m.V.M.M.M.M.M.M.M.M.m.m.m.m.m.m.d.d.d.d.d.d.d.a.a.u.u.u.u.u.u.u.u.u.u.",
"&.&.=.6.6.7.7.7.u.u.u.u.u.u.u.i.i.a.a.a.i.d.d.d.d.d.d.d.d.d.d.d.m.m.m.m.m.g.m.g.m.f.f.d.d.d.d.d.d.d.d.d.d.d.d.d.a.a.u.u.u.a.a.a.",
"&.&.&.&.*.*.*.*.=.6.6.6.6.7.7.7.u.u.u.a.a.a.a.a.i.i.a.a.u.a.d.d.d.d.x.d.x.m.f.f.f.f.f.f.f.f.f.f.f.d.d.d.d.d.d.d.d.i.a.i.i.i.i.i.",
"&.&.&.&.*.=.=.=.6.6.7.7.7.7.7.u.u.u.u.u.a.a.a.a.a.a.a.a.a.a.a.a.a.l.x.d.d.d.d.d.d.d.d.d.i.i.i.a.a.a.a.a.a.i.i.a.a.i.i.i.i.i.i.i.",
"=.=.=.=.=.=.=.=.7.7.7.7.7.7.7.7.u.u.u.u.u.u.u.a.a.a.a.a.a.a.u.a.a.a.a.u.u.u.u.u.u.u.u.u.u.u.u.u.u.u.a.a.u.u.a.a.u.a.a.u.u.u.u.u.",
"=.=.=.&.&.&.=.6.6.6.7.7.7.7.7.7.7.7.7.7.7.7.u.a.a.a.a.a.a.a.a.a.a.a.a.a.a.u.u.u.u.u.u.u.u.u.u.u.u.u.u.a.u.u.a.u.a.u.u.u.u.u.a.u.",
"&.&.&.&.&.&.&.=.6.6.6.7.7.7.7.6.7.7.7.7.u.u.a.a.u.a.a.a.a.a.u.u.u.a.a.a.a.u.u.u.u.u.u.u.u.u.u.u.u.u.u.u.u.u.u.u.u.u.u.u.u.u.u.7.",
"&.&.&.&.&.*.*.*.=.6.6.6.6.6.6.7.7.7.7.7.u.7.7.u.u.u.u.u.a.a.a.a.a.a.l.x.l.u.u.u.u.u.u.u.6.8.8.8.8.6.6.u.u.u.u.u.u.u.7.u.u.u.u.u.",
"&.&.&.=.=.6.6.6.6.6.7.7.7.7.7.7.u.u.u.u.u.u.u.u.u.u.u.u.u.u.u.a.u.l.G.G.x.a.u.u.u.u.p.p.p.p.p.p.u.p.p.p.u.u.u.u.u.u.u.u.u.u.u.u.",
"&.&.*.=.=.6.7.7.7.7.7.7.7.7.u.u.u.u.a.a.u.u.u.u.u.a.a.a.a.a.a.a.a.a.l.x.x.a.a.a.a.a.a.a.a.a.a.p.a.a.p.p.p.p.p.p.p.u.u.a.u.u.u.u.",
"&.=.6.6.6.6.6.7.7.7.7.7.7.u.u.a.a.a.a.a.a.a.a.a.a.a.a.a.a.a.a.a.a.d.d.x.x.d.d.d.x.d.x.x.d.d.d.d.d.d.x.d.x.d.d.d.d.d.d.a.a.a.a.a.",
"6.6.6.6.7.7.7.7.7.u.u.u.u.u.a.a.a.a.a.a.a.a.d.x.x.x.x.x.d.d.d.x.x.x.x.x.x.x.x.x.x.x.x.x.x.x.x.x.x.x.x.x.x.x.x.x.x.x.x.x.x.x.d.d.",
"6.6.6.p.u.u.u.u.a.a.a.a.a.d.d.x.d.x.x.x.x.x.x.x.x.x.x.x.x.x.x.x.x.x.x.x.m.m.m.m.m.m.m.m.m.m.m.m.m.m.m.m.m.m.m.m.m.m.m.m.m.m.m.m.",
"/ v ~ y.2.y.p.p.s.p.p.x.x.x.m.m.m.m.m.m.m.V.m.V.V.V.V.V.V.V.V.V.A.A.A.A.A.A.A.A.A.A.A.Z.Z.Z.Z.Z.Z.Z.Z.Z.Z.Z.Z.Z.Z.Z.Z.n.A.Z.Z.Z.",
"k 8 0 k j k N k k v N N N N B B V V V V C C C C C Z R ~ _ _ { 1.0.0.0.0.e.r.0.0.0.0.0.0.1.1.1.{ ;.{ ] ' ' ' ` _ ! ` ` _ _ ! ! _ ",
"> > 1 q u i i i i l l l M P P K K P P K P / ] { { e.h.j.j.t.v.v.v.v.n.v.v.n.r.y.2.6.$.O.O.X.X.X.X....... . . . . . .( ( ( ( ( ( ",
"6 5 9 5 5 5 9 q q q u M U T T Y T W ^ +.w.b.C.C.Y.Y.!./._._._._./.!.Y.K.n.s.p.y.y.$.@.O.X.....} } } } } ( ( ( ( ( ( ( ( Q Q W W ",
"5 5 3 > , , > , , 3 5 5 5 5 q q t n F U U Y T ) +.t.C.Y.E.{.|.|.{.{.{./.C.n.p.@.2.y.@.X...} } } } ( ( ( ( ^ W ^ W W W E E E E E ",
"3 7 6 6 6 6 3 < > > & & > * % $ $ $ % % > 1 5 e n L U T Y +.v.~.E.9.|.|.{.:.t.p.*.%.O.X.X.X.X.X.O.X.} } } } } } } } } } } } } } ",
"6 6 3 6 7 7 6 7 y e 7 3 > > > > % ; % $ % & $ % * > 1 q t d F L i c +.w.v.N x b.]._._.!.Y.C.n.s.p.p.2.@.X...| | ..| ..o.o.O.$.$.",
"6 6 q 7 q q e e e 7 7 6 5 6 5 6 6 6 < < > 1 , < 5 q q 5 5 u 5 5 q q p d b z u I ) +.#.w.n.D.K.D.C.C.C.n.n.z.s.p.s.p.y.y.y.y.$.@.",
"< 3 < 3 5 3 q q e 7 7 7 q q e 6 6 7 5 6 5 6 u q e 6 6 q 3 e 7 q 6 6 q t 7 e t t q 6 e e p p n K Y ) o.$.q.q.p.s.y.p.y.p.y.y.$.$.",
"6 < ; , < > > > 3 5 6 1 3 3 6 6 6 q 7 q 5 5 6 7 9 3 3 6 6 1 1 , > $ % * $ ; ; > $ $ $ & & $ @ % , 3 p d b n m K I E ) | O.$.*.6.",
"6 < , < 3 % % < , 6 < 3 , 3 ; ; 3 6 3 > < 3 > 3 % < = > > & 3 5 < , , 1 & , > ; % @ O O O + o . O O . O $ , 3 7 6 7 7 6 7 t a m ",
"7 y d b A S b b b b G S G b b f p p e e q 7 3 < % % = % > $ $ @ + O @ O O o $ + O o + . X o @ # O o . . . # @ % ; : ; 3 3 2 7 y ",
"f f p a f f D S A G G S G J A f A J G G G A S G G F S F f y y e e 6 < , < ; % ; ; 6 6 < 3 w 3 3 , , < ; o O X . . + # ; : w y g ",
"3 6 7 p A g G H D A d y w , , 7 y a S S A G S G D S S S A b f a r d q 6 5 w e 3 e 6 7 e e w y 5 , ; 6 6 5 e 6 , , , 5 , 3 3 2 - ",
"# 3 ; ; 6 7 y f S H G G S S G D S b a f y f S D A A H J G H S g p f a p f D S b G J D D a f p a 7 a f y e r 5 3 3 , 6 ; 7 6 6 w ",
"6 < ; 6 < 7 7 < 6 6 7 f G H G w y g G G G J A S G S S A b H S A b d f t p f a r y a a g J D D J S f f h w w 7 w 4 7 a e a r y a ",
"; 3 % 3 3 : 7 5 , > , % < 6 7 ; ; 6 6 r e 7 p a f f f G J J H J U J G G J A G A f g a w a S d f a a d p f A g h f f d w 5 w 5 4 ",
"# # ; 3 # % ; + , ; & ; < 6 6 3 > ; 6 6 3 , 7 w , ; , 5 ; 3 < 6 6 y p f S b G S b A f e y w p 7 w d f y a r d f y r a f s f h d ",
"@ # = ; % # #   @ , 3 7 @ 6 3 7 % # @ , e < 5 6 ; # 7 5 7 < 6 6 6 3 7 7 w , 7 6 6 7 7 e 3 7 y y g A d d r w y a w y w y r 4 7 4 ",
", ; @ o , 6 : < = @ 3 ; , = 3 3 6 w # 5 p e , < , ; < 5 5 < , 3 3 6 , w 6 e 6 < 7 7 6 @ ; 5 6 7 : 5 6 2 e 6 a r 5 4 y a 7 w r r "
};
